<?xml version="1.0" standalone="no"?>
<!DOCTYPE svg PUBLIC "-//W3C//DTD SVG 1.1//EN" "http://www.w3.org/Graphics/SVG/1.1/DTD/svg11.dtd">
<svg xmlns="http://www.w3.org/2000/svg">
<metadata>Generated by Fontastic.me</metadata>
<defs>
<font id="mesa247" horiz-adv-x="512">
<font-face font-family="mesa247" units-per-em="512" ascent="480" descent="-32"/>
<missing-glyph horiz-adv-x="512" />

<glyph glyph-name="favorito" unicode="&#98;" d="M262 26l-226 210c-23 28-36 62-36 98 0 83 68 152 152 152 39 0 76-14 104-41 28 26 65 41 104 41 84 0 152-69 152-152 0-36-13-72-36-98l-2-2-176-160-22 24 175 160c18 21 29 49 29 77 0 65-54 120-121 120-35 0-70-16-92-43l-12-14-12 14c-22 27-56 43-92 43-66 1-120-53-120-120 0-29 10-56 28-77l223-207z m-18 104l-161 150c-12 15-19 35-19 54 0 48 40 88 88 88l0-33c-31 0-56-25-56-55 0-12 4-24 12-34l158-147z m67 228l-28 16c11 20 30 35 53 42 22 6 46 3 67-8l-16-28c-12 7-28 9-42 4-15-3-27-13-34-26z"/>
<glyph glyph-name="glutenfree" unicode="&#99;" d="M383 271l-64 0 0 33 33 0 0 15c0 88-72 161-161 161-89 0-159-71-159-160l0-15 32 0 0-33-64 0 0 48c0 106 86 191 192 191 106 0 192-86 192-192z m-31-272l-320 0 0 240 32 0 0-207 255 0 0 207 33 0z m160 272l-64 0 0 33 32 0 0 15c0 88-71 161-160 161l0 32c106 1 192-85 192-191z m-32-272l-97 0 0 33 64 0 0 207 33 0z"/>
<glyph glyph-name="mensaje" unicode="&#100;" d="M103 15l-27 0 16 23c12 17 21 37 25 64-76 35-117 99-117 185 0 130 98 210 256 210 158 0 256-81 256-210 0-132-96-211-256-211-3 0-8 0-11 0-26-29-68-61-142-61z m150 448c-139 0-221-65-221-178 0-96 58-138 106-158l10-4-1-10c-4-24-9-46-17-64 50 6 79 32 95 53l5 5 9 0c4 0 9 0 14 0 199 0 221 124 221 178 2 112-81 178-221 178z"/>
<glyph glyph-name="musica" unicode="&#101;" d="M384 32c-53 0-96 42-96 96 0 54 42 96 96 96 54 0 96-42 96-96 0-54-43-96-96-96z m0 160c-35 0-64-29-64-64 0-35 29-64 64-64 35 0 64 29 64 64 0 36-28 64-64 64z m-256-192c-53 0-97 43-97 96 0 54 42 97 96 97 53 0 97-43 97-97 0-53-43-96-96-96z m0 160c-35 0-64-29-64-64 0-35 29-64 64-64 35 0 64 29 64 64 0 35-29 64-64 64z m96-64l-32 0 0 300 266 116 13-30-247-107z m224 337l32 0 0-305-32 0z"/>
<glyph glyph-name="notas" unicode="&#102;" d="M152 288l208 0 0-33-208 0z m0-64l208 0 0-32-208 0z m0-64l208 0 0-32-208 0z m0 224l96 0 0-32-96 0z m320-384l-432 0 0 448 33 0 0-416 367 0 0 448-400 0 0 32 432 0z"/>
<glyph glyph-name="silladerueda" unicode="&#103;" d="M342 384c-35 0-64 29-64 64 0 35 29 64 64 64 35 0 64-29 64-64 0-35-29-64-64-64z m0 96c-18 0-32-13-32-32 0-19 13-32 32-32 18 0 33 13 33 32 0 19-15 32-33 32z m-128-480c-79 0-143 65-143 143 0 79 65 144 143 144l0-33c-62 1-112-49-112-111 0-63 51-113 113-113 62 0 113 50 113 113l32 0c-2-78-66-143-146-143z m0 64c-44 0-79 36-79 79 0 44 36 80 79 80l0-33c-27 0-48-21-48-48 0-28 21-49 48-49 27 0 49 21 49 49l32 0c-1-42-37-78-81-78z m192-35l-31 6 28 142-180 0 64 158-84 0-93-60-17 26 100 65 141 3-64-162 171 0z"/>
<glyph glyph-name="vino" unicode="&#104;" d="M256 224c-106 0-192 87-192 192l0 96 383 0 0-96c1-106-85-192-191-192z m-160 256l0-64c0-87 71-160 160-160 88 0 160 72 160 160l0 64z m145-287l32 0 0-192-32 0z m-128-161l287 0 0-32-287 0z m143 256c-70 0-128 57-128 128l0 16 32 0 0-16c0-52 43-96 97-96z"/>
<glyph glyph-name="vip" unicode="&#105;" d="M199 288l-199 0 0 33 177 0 64 180 30-9z m248-277l-191 113-191-113 70 185-94 45 14 30 119-59-47-128 129 78 129-78-47 128 119 59 14-30-94-45z m65 277l-220 0-35 127 31 8 29-102 195 0z"/>
<glyph glyph-name="wifi" unicode="&#106;" d="M256 1c-35 0-64 29-64 64 0 35 29 63 64 63 35 0 64-29 64-64 0-35-29-63-64-63z m0 95c-18 0-32-13-32-32 0-19 13-32 32-32 18 0 32 13 32 32 0 19-14 32-32 32z m-108 87l-23 22c68 67 179 67 246 0l-22-22c-56 55-146 55-201 0z m273 103c-91 90-239 90-330 0l-22 22c103 102 271 102 374 0z m64 100c-127 125-331 125-458 0l-22 22c139 137 364 138 502 0z"/>
<glyph glyph-name="accessbici" unicode="&#107;" d="M96 73c-20 0-40 7-57 19-20 15-34 37-37 62-4 25 1 51 18 71 14 21 36 34 62 38l4-32c-16-2-31-12-42-24-10-14-13-31-12-47 3-17 12-32 25-42 28-21 68-15 90 13l25-18c-18-27-47-40-76-40z m320 0c-14 0-29 4-42 10-23 11-40 30-49 54-8 24-7 50 4 73l29-14c-7-15-8-32-2-48 5-16 16-29 32-37 16-8 33-9 49-3 15 5 28 18 37 33 7 15 8 32 2 48-5 16-16 29-32 37l13 28c23-11 40-30 49-54 9-24 7-50-4-73-11-23-31-40-55-48-12-4-22-6-31-6z m-17 92l-48 175 31 9 48-176z m-27 226l-8 32 64 16 8-32z m-225-64l-5 31 95 16 5-32z m100-174l-183 0 0 39 137 102 160 64 7-14 13-9z m-139 32l124 0 91 124-106-43z m244 190l32 0 0-47-32 0z"/>
<glyph glyph-name="bar" unicode="&#108;" d="M364 0l-215 0-38 307 58 109 172 0 60-109z m-186 32l157 0 34 268-46 84-134 0-44-84z m23 46l-21 182 33 3 20-182z m141 370l-32 0 0 32-108 0 0-32-31 0 0 64 171 0z m-165-128l160 0 0-32-160 0z"/>
<glyph glyph-name="cafe" unicode="&#109;" d="M207 128c-114 0-207 96-207 213l0 106 416 0 0-106c0-117-94-213-209-213z m-175 288l0-75c0-100 78-181 175-181 98 0 176 81 176 181l0 75z m175-224c-79 0-143 67-143 149l0 26 32 0 0-26c0-65 51-117 112-117z m256 96l-17 0 0 32 17 0c10 0 16 8 16 15l0 33c0 9-8 15-16 15l-17 0 0 33 17 0c27 0 48-22 48-48l0-33c0-26-21-47-48-47z m-383-191l255 0 0-32-255 0z"/>
<glyph glyph-name="corcholibre" unicode="&#110;" d="M416 384l-320 0c-35 0-64 29-64 64 0 35 29 64 64 64l320 0c35 0 64-29 64-64 0-35-29-64-64-64z m-320 96c-17 0-32-13-32-32 0-18 15-32 32-32l320 0c17 0 32 13 32 32 0 18-14 32-32 32z m176-480l-32 1 0 72-39 39 64 64-63 64 38 39 0 73 32 0 0-87-25-25 64-64-64-64 25-25z"/>
<glyph glyph-name="cumpleaos" unicode="&#111;" d="M298 247l-22 0 0 146-44 0 0-146-21 0 0 185 87 0z m-2 14l-290 0 0-35 466 0 0-178-432 0 0 143-34 0 0-178 500 0 0 248z m-54 238l24 0 0-96-24 0z m-218-350l458 0 0-24-458 0z"/>
<glyph glyph-name="estacionamiento" unicode="&#112;" d="M511 160l-510 0 0 32 478 0 0 39-72 44 16 26 88-53z m-479 60l-31 7 51 220 280 0 40-176-292 0 0 33 251 0-24 112-229 0z m352-155c-35 0-64 29-64 64l32 0c0-18 14-33 33-33 19 0 32 14 32 33l33 0c-3-35-31-64-66-64z m-271 0c-35 0-64 29-64 64l32 0c0-18 14-33 32-33 19 0 33 14 33 33l32 0c-1-35-30-64-65-64z"/>
<glyph glyph-name="cerrar-cupo" unicode="&#113;" d="M256 1c-105 0-191 86-191 191l0 96 381 0 0-96c1-105-85-191-190-191z m-160 255l0-64c0-88 71-160 160-160 88 0 160 71 160 160l0 64z m160-175c-26 0-48 21-48 47l0 32c0 27 22 48 48 48 26 0 48-21 48-48l0-32c-1-26-22-47-48-47z m-15 47c0-9 7-15 15-15 8 0 15 7 15 15l0 32c0 10-7 16-15 16-8 0-15-8-15-16z m142 192l-32 0 0 69c0 50-43 91-96 91-53 0-95-41-95-91l0-69-33 0 0 69c0 68 57 123 127 123 70 0 127-55 127-123l0-69z"/>
<glyph glyph-name="notif" unicode="&#114;" d="M211 465l-5 32 96 15 5-32z m224-384l-358 0 35 209c1 79 65 143 144 143 79 0 144-64 144-143z m-320 32l284 0-30 177c0 62-50 111-112 111-62 0-112-50-112-112l0-2z m77 46l-32 4 16 126c0 44 36 80 79 80l0-33c-27 0-48-21-48-47l0-9z m64-159c-27 0-49 21-49 49l33 0c0-10 7-16 15-16 10 0 16 8 16 16l32 0c2-27-20-49-47-49z"/>
<glyph glyph-name="waitlistcrear" unicode="&#117;" d="M447 0l-382 0 0 446 64 0 0-31-33 0 0-383 319 0 0 383-32 0 0 31 64 0z m-95 383l-192 0 0 97 50 0c7 17 25 32 46 32 21 0 39-13 45-32l50 0 0-97z m-159 32l127 0 0 32-48 0 0 16c0 10-7 17-16 17-9 0-16-8-16-17l0-16-48 0 0-32z m-33-160l191 0 0-32-191 0z m0-64l191 0 0-32-191 0z m0-63l191 0 0-32-191 0z m0 191l79 0 0-32-79 0z"/>
<glyph glyph-name="abrir-cupo" unicode="&#118;" d="M256 1c-105 0-191 86-191 191l0 96 382 0 0-97c0-105-86-190-191-190z m-160 255l0-64c0-88 71-160 160-160 88 0 160 71 160 160l0 64z m160-175c-26 0-48 21-48 47l0 32c0 27 22 48 48 48 26 0 48-21 48-48l0-32c-1-26-22-47-48-47z m-15 47c0-9 7-15 15-15 9 0 15 7 15 15l0 32c0 10-7 16-15 16-9 0-15-8-15-16z m-98 183c-35 49-29 118 17 162 49 49 129 52 177 3l49-48-22-23-49 49c-35 35-94 34-132-3-34-34-39-85-13-122z"/>
<glyph glyph-name="buscar" unicode="&#119;" d="M208 96c-115 0-208 93-208 208 0 115 93 207 208 207 115 0 208-93 208-207 0-115-93-208-208-208z m0 384c-97 0-176-80-176-176 0-97 79-176 176-176 97 0 176 79 176 176-1 95-79 176-176 176z m256-479c-12 0-25 4-34 14l-89 86 23 23 88-87c7-7 16-7 23 0 3 2 5 7 5 11 0 4-2 8-5 11l-87 89 23 23 87-89c10-9 14-21 14-33 0-13-4-25-14-34-10-10-22-14-34-14z m-345 212c-51 50-51 130 0 180l22-22c-37-36-37-98 0-135z"/>
<glyph glyph-name="calendar" unicode="&#120;" d="M193 274l37 0 0-36-37 0z m78 0l37 0 0-36-37 0z m78 0l38 0 0-36-38 0z m-156-67l37 0 0-35-37 0z m78 0l37 0 0-35-37 0z m78 0l38 0 0-35-38 0z m-156-64l37 0 0-36-37 0z m-78 64l38 0 0-35-38 0z m0-64l38 0 0-36-38 0z m156 0l37 0 0-36-37 0z m78 0l38 0 0-36-38 0z m-237 368l37 0 0-111-37 0z m244 0l37 0 0-111-37 0z m-324-144l480 0 0-37-480 0z m393 107l0-36 55 0 0-401-448 0 0 365-32 0 0-401 512 0 0 473z m-69 0l37 0 0-35-37 0z m-244 0l37 0 0-35-37 0z m69 0l143 0 0-35-143 0z m-181 0l80 0 0-35-80 0z"/>
<glyph glyph-name="cambiar" unicode="&#121;" d="M208 337l111 0 0-32-111 0z m-65-96l-32 0 0 52c0 1 16 123 160 123l46 0 0-32-46 0c-111 0-128-84-129-95z m175-5l0 101 32 0 0-42 104 69-104 70 0-49-32 0 0 107 192-128z m143-217l-459 0 0 397 111 0 0-31-80 0 0-334 396 0 0 207 32 0z"/>
<glyph glyph-name="cerrar-cupo-1" unicode="&#122;" d="M256 1c-105 0-191 86-191 191l0 96 381 0 0-96c1-105-85-191-190-191z m-160 255l0-64c0-88 71-160 160-160 88 0 160 71 160 160l0 64z m160-175c-26 0-48 21-48 47l0 32c0 27 22 48 48 48 26 0 48-21 48-48l0-32c-1-26-22-47-48-47z m-15 47c0-9 7-15 15-15 8 0 15 7 15 15l0 32c0 10-7 16-15 16-8 0-15-8-15-16z m142 192l-32 0 0 69c0 50-43 91-96 91-53 0-95-41-95-91l0-69-33 0 0 69c0 68 57 123 127 123 70 0 127-55 127-123l0-69z"/>
<glyph glyph-name="check" unicode="&#65;" d="M512 382l-286-364-219 219 31 34 185-185 256 330z"/>
<glyph glyph-name="deshacer" unicode="&#66;" d="M317 290l-61 0 0 34 61 0c186 0 195-160 195-162l0-68-34 0 1 65c0 6-7 131-162 131z m-315-31l237 158 0-93 17 0 0-34-51 0 0 68-148-99 148-99 0 62 196 0 0-26-162 0 0-96z"/>
<glyph glyph-name="editar" unicode="&#67;" d="M44 177l-44-176 176 44 268 268-133 133z m105-110l-85-22c-4 9-12 16-20 21l21 85c39-16 71-47 84-84z m24 12c-5 15-16 31-25 41l224 226 34-34z m175 293l-226-226c-12 9-28 20-42 26l233 232z m162 15c-8 64-59 115-123 123l-8 1-53-53 133-133 53 53z m-53-25l-94 95 27 27c48-11 84-48 95-95z"/>
<glyph glyph-name="hacer" unicode="&#69;" d="M193 290l63 0 0 34-63 0c-185 0-193-160-193-162l0-68 32 0 0 65c0 6 6 131 161 131z m317-31l-237 158 0-93-17 0 0-34 51 0 0 68 148-99-148-99 0 62-196 0 0-26 162 0 0-96z"/>
<glyph glyph-name="horario" unicode="&#70;" d="M381 160l-108 105 0 153-34 0 0-166 118-115z m-282-59c-42 40-67 95-67 158 0 105 76 197 179 218l-7 32c-118-24-203-130-203-250 0-141 110-256 255-256 0 0 1 0 2 0 47 0 96 14 139 42l-18 27c-87-58-206-46-280 29z m413 155c0 59-17 104-46 146-1 2-2 3-3 4-3 4-6 9-9 13-2 2-3 3-5 6-4 3-7 8-10 11-1 1-2 2-2 3-35 34-79 59-130 70l-7-32c78-16 140-72 167-142 23-65 16-140-23-199l26-19c27 43 41 89 42 139z"/>
<glyph glyph-name="info" unicode="&#71;" d="M384 64l-352 0 0 448 352 0z m-320 32l288 0 0 384-288 0z m49 224l192 0 0-32-192 0z m0-63l192 0 0-33-192 0z m0-64l192 0 0-33-192 0z m0 191l96 0 0-32-96 0z m367-384l-336 0 0 32 305 0 0 384-32 0 0 32 63 0z"/>
<glyph glyph-name="mas2" unicode="&#72;" d="M243 270l272 0 0-30-272 0z m-1 242l30 0 0-271-30 0z m0-243l30 0 0-272-30 0z m-242 1l271 0 0-30-271 0z"/>
<glyph glyph-name="mover" unicode="&#74;" d="M426 342l-20-19 67-68-67-66 20-20 86 86z m-183-72l250 0 0-28-250 0z m99 156l-19-20-68 67-66-67-20 20 86 86z m-100 67l28 0 0-250-28 0z m-72-407l19 20 68-67 66 67 20-20-86-86z m72 183l28 0 0-250-28 0z m-156-99l20 19-67 68 67 66-20 20-86-86z m-67 100l250 0 0-28-250 0z"/>
<glyph glyph-name="reserva" unicode="&#75;" d="M239 383l33 0 0-341-33 0z m-33-339l-206 0 0 426 188 0c48 0 85-37 85-85l-34 0c0 27-24 51-51 51l-154 0 0-357 172 0z m306 0l-206 0 0 33 172 0 0 357-154 0c-27 0-51-24-51-51l-34 0c0 48 37 85 85 85l188 0z"/>
<glyph glyph-name="telefono" unicode="&#76;" d="M336 2c-75 0-157 36-225 103-108 108-137 257-67 348l24-19c-58-76-30-212 66-306 95-95 228-121 303-61l20-25c-34-27-76-40-121-40z m149 77l-120 119-21-22c-23-23-53-35-85-35-33 0-63 13-86 35-47 47-47 123 0 170l22 22-119 119 22 22 142-141-45-44c-35-35-35-90 0-125 17-16 39-26 63-26 24 0 46 10 62 26l44 43 141-141z"/>
<glyph glyph-name="timer" unicode="&#77;" d="M239 0c-115 0-208 94-208 208 0 85 50 160 128 192l12-30c-66-28-109-91-109-162 0-97 79-176 176-176 91 0 167 70 175 162l32-3c-7-107-99-191-206-191z m176 222c-6 66-46 122-108 148l12 30c73-31 120-97 127-175z m-128 146l-32 0 0 80 49 0 0 32-129 0 0-32 48 0 0-80-32 0 0 48-48 0 0 96 192 0 0-96-48 0z m124 5l-23 23 48 48 23-23z m48 26l-45 45 23 23 45-45z m-92-207l-144 0 0 144 32 0 0-112 112 0z"/>
<glyph glyph-name="usuario" unicode="&#78;" d="M257 224c-80 0-144 64-144 144 0 80 64 144 144 144 80 0 144-65 144-144 0-80-66-144-144-144z m0 257c-62 0-113-50-113-112 0-63 51-113 113-113 62 0 112 50 112 113 0 61-52 112-112 112z m194-481l-390 0 21 167 75 24 10-31-56-17-14-111 318 0-14 111-55 17 9 31 76-24z"/>
<glyph glyph-name="usuarios" unicode="&#79;" d="M193 224c-79 0-143 64-143 143 0 78 64 142 143 142 78 0 142-64 142-142 0-79-64-143-142-143z m0 255c-62 0-111-50-111-111 0-62 49-111 111-111 61 0 111 49 111 111 0 60-51 111-111 111z m174-255l0 33c44 0 78 36 78 78 0 45-35 79-78 79l0 32c61 0 111-49 111-111 0-60-50-111-111-111z m145-190l-98 0 0 33 61 0-12 81-53 14 8 31 74-19z m-127-31l-385 0 20 165 75 24 10-30-56-18-13-110 313 0-13 110-55 18 9 30 75-24z"/>
<glyph glyph-name="zoomin" unicode="&#80;" d="M208 96c-115 0-208 93-208 208 0 115 93 207 208 207 115 0 208-93 208-207 0-115-93-208-208-208z m0 384c-97 0-176-80-176-176 0-97 79-176 176-176 97 0 176 79 176 176-1 95-79 176-176 176z m256-479c-12 0-25 4-34 14l-89 86 23 23 88-87c7-7 16-7 23 0 3 2 5 7 5 11 0 4-2 8-5 11l-87 89 23 23 87-89c10-9 14-21 14-33 0-13-4-25-14-34-10-10-22-14-34-14z m-274 406l38 0 0-207-38 0z m-86-85l207 0 0-38-207 0z"/>
<glyph glyph-name="zoomout" unicode="&#81;" d="M208 96c-115 0-208 93-208 208 0 114 93 208 208 208 115 0 208-94 208-208 0-115-93-208-208-208z m0 384c-97 0-176-79-176-176 0-97 79-176 176-176 97 0 176 79 176 176 0 96-79 176-176 176z m256-480c-12 0-25 4-34 14l-89 86 23 23 88-87c7-7 17-7 23 0 3 2 5 8 5 11 0 4-2 8-5 11l-87 90 23 23 87-89c10-9 14-21 14-33 0-13-4-25-14-34-10-11-22-15-34-15z m-359 322l207 0 0-38-207 0z"/>
<glyph glyph-name="power-off" unicode="&#89;" d="M256 0c-123 0-224 100-224 224 0 93 55 175 140 209l12-30c-72-29-120-99-120-178 0-106 86-192 192-192 106 0 192 86 192 192 0 79-47 150-120 178l12 30c85-34 140-116 140-209 1-124-100-224-224-224z m0 304c-13 0-25 4-34 13-10 10-14 22-14 35l0 112c0 13 4 25 14 34 9 10 21 14 34 14 26 0 48-21 48-48l0-112c1-27-20-48-48-48z m0 176c-4 0-9-2-11-5-3-2-4-7-4-11l0-112c0-4 1-8 4-11 2-2 8-4 11-4 9 0 15 8 15 15l0 112c2 8-6 16-15 16z"/>
<glyph glyph-name="home" unicode="&#90;" d="M451 0l-390 0 0 212 32 0 0-179 326 0 0 179 32 0z m36 217l-231 247-232-247-24 22 256 273 256-273z m-166-151l-33 0 0 113-65 0 0-113-32 0 0 146 130 0z m-65 178c-36 0-65 29-65 65 0 36 29 65 65 65 36 0 65-29 65-65 0-36-29-65-65-65z m0 97c-18 0-33-14-33-33 0-19 14-33 33-33 18 0 33 14 33 33 0 19-15 33-33 33z"/>
<glyph glyph-name="mozo" unicode="&#48;" d="M512 124l-512 0 0 13c0 122 90 252 256 252 179 0 256-167 256-252z m-486 24l460 0c-6 80-76 215-229 215-162 1-225-123-231-215z m239 228l-28 0 0 34-25 0 0 27 82 0 0-27-29 0z m-265-275l512 0 0-26-512 0z m414 120c-13 30-36 55-65 73l9 14c33-20 58-48 71-80z"/>
<glyph glyph-name="mesas" unicode="&#49;" d="M256 203l-256 137 256 138 256-138z m-184 138l184-99 184 99-184 99z m184-219l-244 119 14 30 230-112 230 112 14-30z m0-88l-244 121 14 30 230-112 230 112 14-30z"/>
<glyph glyph-name="time" unicode="&#50;" d="M128 79l-96 0 0 98 96 0z m-64 34l32 0 0 32-32 0z m64 94l-96 0 0 98 96 0z m-64 34l32 0 0 32-32 0z m416-241l-416 0 0 47 32 0 0-15 352 0 0 448-352 0 0-15-32 0 0 47 416 0z m-352 335l-96 0 0 98 96 0z m-64 34l32 0 0 32-32 0z m288 111l32 0 0-448-32 0z"/>
<glyph glyph-name="menu-item" unicode="&#51;" d="M49 338c-27 0-49 22-49 49 0 28 22 50 49 50 28 0 50-22 50-50-2-28-23-49-50-49z m0 65c-9 0-16-8-16-16 0-10 8-17 16-17 9 0 17 8 17 17 0 9-8 16-17 16z m0-196c-27 0-49 22-49 49 0 27 22 49 49 49 28 0 50-22 50-49-2-27-23-49-50-49z m0 65c-9 0-16-7-16-16 0-9 8-16 16-16 9 0 17 7 17 16 0 9-8 16-17 16z m0-196c-27 0-49 22-49 49 0 28 22 50 49 50 28 0 50-22 50-50 0-28-23-49-50-49z m0 66c-9 0-16-8-16-17 0-8 8-16 16-16 9 0 17 8 17 16 0 9-8 17-17 17z m463 196l-381 0 0 32 349 0 0 33-349 0 0 33 381 0z m0-131l-381 0 0 33 349 0 0 32-349 0 0 33 381 0z m0-131l-381 0 0 32 349 0 0 34-349 0 0 32 381 0z"/>
<glyph glyph-name="gear" unicode="&#52;" d="M255 175c-21 0-42 8-56 23-15 14-23 35-23 56 0 22 8 42 23 57 14 14 35 23 56 23 21 0 42-9 56-23 15-15 24-35 24-57l-16 0 16 0c0-21-9-42-24-56-14-15-35-23-56-23z m0 127c-13 0-25-4-34-14-9-9-14-21-14-34 0-26 22-47 48-47 13 0 25 4 33 13 10 10 14 21 14 34 0 13-4 25-14 34-7 10-19 14-33 14 2 0 2 0 0 0z m55-302l-102 0-19 74c-20 7-38 16-54 28l-72-19-49 89 50 49c-2 11-3 23-3 34 0 10 1 18 2 27l-56 57 50 88 78-22c16 13 34 23 54 30l2 13 32-4-5-34-10-2c-22-7-42-16-59-32l-6-5-70 20-27-45 50-52-1-8c-2-10-3-21-3-30 0-11 1-23 4-35l1-9-45-44 26-45 63 16 7-5c16-14 35-25 57-31l8-2 17-67 53 0 20 73 8 2c15 7 30 15 43 27l7 5 70-20 26 45-50 52 2 8c1 10 2 21 2 30 0 8-1 15-1 23l-1 9 58 57-26 45-77-21-7 6c-14 12-28 22-46 29l-7 2-20 73-79 0 0 33 105 0 21-81c14-7 27-15 39-25l84 22 50-88-65-63c1-7 1-13 1-19 0-10-1-18-1-27l56-57-50-88-78 22c-12-10-24-17-38-24z"/>
<glyph glyph-name="config" unicode="&#53;" d="M65 404c-12 0-26 4-35 13l-21 23 68 69 22-23c9-9 14-21 14-35 0-13-5-25-14-35-9-8-21-12-34-12z m-12 37c7-7 17-7 22 0 4 3 5 8 5 11 0 5-1 9-4 11z m125-123l-102 99 22 23 102-98z m240-241l-88 88 23 23 88-88z m14-68c-21 0-41 7-57 23l-99 98 23 22 98-98c19-19 49-19 68 0 19 19 19 49 0 68l-98 98 22 22 98-97c32-32 32-83 0-114-13-15-35-22-55-22z m-52 257c-30 0-59 12-80 33-21 21-32 49-32 79 0 30 12 59 32 79l30 30 22-22-29-30c-15-15-23-36-23-57 0-21 9-42 23-57 15-16 36-23 58-23 21 0 41 8 57 23l30 30 22-22-31-30c-21-21-49-33-79-33z m109 63l-35 35-10-12c-12-12-28-18-46-18-17 0-34 6-46 18-12 12-19 29-19 47 0 17 7 33 19 46l11 11-35 35 23 21 57-57-35-35c-7-7-9-14-9-22 0-9 3-17 9-23 6-5 14-9 22-9 9 0 17 3 22 9l35 35 57-57z m-424-232l32 0 0-32-32 0z m212 126l-64 63 23 23 63-63z m-196-223c-21 0-42 9-57 23-15 15-23 36-23 57 0 22 8 42 23 57l2 2 167 121 19-26-167-120c-8-9-13-20-13-33 0-13 5-26 14-35 18-18 50-19 67-1l121 166 26-19-123-170c-14-13-35-22-56-22z"/>
<glyph glyph-name="history" unicode="&#54;" d="M368 141l-111 108 0 157 30 0 0-145 102-98z m98-26l-25 18c59 79 53 192-13 266l22 19c43-49 65-113 62-174-3-47-18-93-46-129z m-252-94l7 29c96-24 198 25 241 115l27-13c-48-104-164-159-275-131z m-181 202l31 4c14-99 96-177 195-183l-3-29c-113 6-208 96-223 208z m479 22l-30 0c6 117-84 215-200 221-101 6-190-61-215-157l-29 8c29 110 131 186 245 180 133-7 236-121 229-252z m-465 33l-47 77 26 16 31-52 52 31 16-26z"/>
<glyph glyph-name="help" unicode="&#55;" d="M293 1l-5 31c111 15 194 111 194 222 0 124-100 225-224 225-125 0-225-101-225-225 0-111 84-207 194-222l-4-31c-127 17-223 126-223 254 0 141 115 256 256 256 141 0 256-115 256-256 3-128-92-236-219-254z m-17 209l-33 0 0 64 16 0c35 0 64 29 64 64 0 35-29 64-64 64-35 0-64-29-64-64l-33 0c0 53 43 96 97 96 53 0 96-42 96-96 0-47-34-87-79-95z m-17-128c-28 0-49 21-49 49 0 27 21 48 49 48 27 0 48-21 48-48 0-28-21-49-48-49z m0 64c-10 0-16-8-16-15 0-8 8-16 16-16 8 0 15 8 15 16 0 7-6 15-15 15z"/>
<glyph glyph-name="facebook" unicode="&#38;" d="M384 509l0-76-45 0c-17 0-28-3-33-10-6-7-9-17-9-31l0-54 84 0-11-85-73 0 0-216-87 0 0 216-73 0 0 85 73 0 0 62c0 36 10 63 29 83 20 19 47 29 80 29 28 0 49-1 65-3z"/>
<glyph glyph-name="instagram" unicode="&#39;" d="M389 256c0 9-1 17-3 26 0 0 90 0 90 0 0 0 0-177 0-177 0-19-6-35-20-49-13-13-29-20-48-20 0 0-304 0-304 0-19 0-35 7-48 20-14 14-20 30-20 49 0 0 0 177 0 177 0 0 89 0 89 0-1-11-2-20-2-26 0-36 13-67 39-94 26-26 57-39 94-39 36 0 67 13 94 39 26 27 39 58 39 94m19 220c19 0 35-6 48-20 14-13 20-29 20-48 0 0 0-75 0-75 0 0-111 0-111 0-27 37-63 56-109 56-47 0-83-19-109-56 0 0-111 0-111 0 0 0 0 75 0 75 0 19 6 35 20 48 13 14 29 20 48 20 0 0 304 0 304 0m32-85c0 0 0 37 0 37 0 8-4 12-12 12 0 0-37 0-37 0-8 0-12-4-12-12 0 0 0-37 0-37 0-3 1-5 3-8 3-3 6-4 9-4 0 0 37 0 37 0 8 0 12 4 12 12m-102-135c0-23-8-42-24-58-16-16-35-24-58-24-23 0-42 8-58 24-16 16-24 35-24 58 0 23 8 43 24 58 16 16 35 24 58 24 23 0 42-8 58-24 16-15 24-35 24-58"/>
<glyph glyph-name="angle-left" unicode="&#40;" d="M344 357c0-3-1-5-3-7l-112-112 112-113c2-1 3-4 3-6 0-3-1-5-3-7l-14-14c-2-2-5-3-7-3-2 0-5 1-7 3l-133 133c-2 2-3 4-3 7 0 2 1 4 3 6l133 133c2 2 5 3 7 3 2 0 5-1 7-3l14-14c2-2 3-4 3-6z"/>
<glyph glyph-name="angle-right" unicode="&#41;" d="M335 238c0-3-1-5-3-7l-133-133c-2-2-5-3-7-3-2 0-5 1-7 3l-14 14c-2 2-3 4-3 7 0 2 1 5 3 6l112 113-112 112c-2 2-3 4-3 7 0 2 1 4 3 6l14 14c2 2 5 3 7 3 2 0 5-1 7-3l133-133c2-2 3-4 3-6z"/>
<glyph glyph-name="angle-up" unicode="&#42;" d="M399 174c0-3-1-5-3-7l-15-14c-1-2-4-3-6-3-3 0-5 1-7 3l-112 112-112-112c-2-2-4-3-7-3-2 0-5 1-6 3l-15 14c-2 2-3 4-3 7 0 2 1 4 3 6l133 133c2 2 5 3 7 3 2 0 5-1 7-3l133-133c2-2 3-4 3-6z"/>
<glyph glyph-name="cancel" unicode="&#36;" d="M514 484l-28 28-228-228-227 228-28-28 227-228-227-228 28-28 227 228 228-228 28 28-228 228z"/>
<glyph glyph-name="celular" unicode="&#44;" d="M427 384l-319 0 0 128 319 0z m-288 32l255 0 0 64-255 0z m288-416l-319 0 0 352 31 0 0-320 255 0 0 320 33 0z m-176 96l32 0 0-32-32 0z m-15 368l64 0 0-32-64 0z m-113-304l287 0 0-32-287 0z"/>
<glyph glyph-name="trash-o" unicode="&#46;" d="M416 0l-320 0 0 368 32 0 0-336 256 0 0 336 32 0z m-352 432l383 0 0-33-383 0z m272-32l-159 0 0 112 160 0 0-112z m-128 32l97 0 0 48-97 0z m-16-113l32 0 0-224-32 0z m96 0l33 0 0-224-33 0z"/>
<glyph glyph-name="flecha" unicode="&#68;" d="M414 362l-18-17 69-72-465 0 0-26 465 0-65-64 17-16 95 93z"/>
<glyph glyph-name="entrada" unicode="&#58;" d="M288 136l-34 0 0 138c0 16 0 30 1 39-2-2-5-5-8-8-4-2-15-11-33-26l-17 22 63 50 29 0 0-215z m224 128c0 1 0 3 0 5 0 5-1 9-1 14 0 1 0 1 0 2 0 3-1 8-2 11 0 1 0 1 0 2 0 3 0 7-1 11 0 1-1 2-1 3-1 4-2 6-3 10-1 1-1 3-1 5-1 2-1 4-2 7-1 2-2 5-3 7-1 2-1 3-1 5-1 3-3 6-4 9 0 1-1 2-1 3-1 3-3 6-4 10 0 0 0 1-1 1-1 3-3 6-5 11-4 7-8 14-13 21-2 3-4 7-6 9 0 0 0 0 0 1-3 3-5 6-7 9 0 0-1 1-1 1-2 2-4 5-7 7-1 1-1 2-2 2-1 2-4 4-6 6-1 1-1 2-2 3-2 1-4 3-5 5-2 1-3 2-5 3-1 1-2 3-4 4-2 1-3 3-5 4-1 1-3 2-3 2-4 2-6 4-8 6-1 0-2 0-3 1-2 2-5 4-7 5-1 0-1 1-2 1-3 2-6 4-9 6 0 0-1 0-1 0-4 2-7 4-11 6-3 2-6 4-11 5-3 2-7 4-11 5-3 2-7 3-11 5 0 0-1 0-1 0-3 0-6 2-10 3-1 0-2 1-2 1-4 1-6 2-10 2-2 0-3 1-4 1-3 1-5 1-8 2-2 1-4 1-7 1-1 0-3 1-5 1-3 1-6 1-9 1-1 0-3 0-4 0-3 0-7 0-11 0 0 0 0 0-1 0-4 0-8 0-12 0-1 0-1 0-2 0-3 0-6 0-9 0-1 0-3 0-4 0-2 0-2 0-4 0-3 0-6 0-9 0-1 0-1 0-2 0-4-1-8-1-11-2-1 0-1 0-2 0-3-1-8-1-11-2-1 0-2-1-3-1-4-1-6-1-10-2-2 1-3 1-5 0-3-1-4-1-7-2-2-1-5-2-7-3-2 0-3 0-5-1-3-1-6-3-8-4-1 0-2 0-3 0-3-2-7-3-10-5 0 0-1 0-1-1-3-1-7-3-10-5-4-1-7-4-10-6-4-1-7-4-11-7-3-2-6-4-9-6 0 0 0 0-1-1-2-3-6-4-8-7 0 0-1-1-2-1-3-2-5-4-8-6-1-1-2-2-2-2-3-2-5-4-6-6-1 0-3-2-4-3-1-2-3-3-4-5-2-1-3-3-4-3-1-2-3-3-4-5-1-1-3-3-4-5-1-1-2-2-3-3-2-3-4-5-6-7 0-1 0-2-1-3-2-2-4-5-6-7 0-1-1-1-1-2-2-3-4-6-6-9 0 0 0-1 0-1-2-4-4-7-6-11-2-3-3-6-5-11-2-3-4-7-5-11-2-3-3-7-4-11 0 0 0-1 0-1-1-3-3-6-4-10 0-1-1-2-1-2-1-4-1-6-2-10 0-2-1-2-1-4-1-3-1-5-2-8-1-2-1-4-1-7 0-1-1-3-1-5 0-3 0-6 0-9 0-1 0-3 0-4 0-3-1-7-1-11 0 0 0 0 0-1 0-4 0-8 0-12 0-1 0-1 0-2 0-3 0-6 0-9 0-1 0-3 0-4 0-2 0-2 0-4 0-3 0-6 1-9 0-1 0-1 0-2 0-4 0-8 1-12 0-1 0-1 0-2 1-3 1-7 2-11 0-1 1-2 1-3 1-4 2-6 2-10 0-1 0-2 1-4 1-3 1-4 2-7 1-2 2-5 3-7 0-2 0-3 1-5 1-3 3-6 4-8 0-1 0-2 0-3 2-3 3-7 5-10 0 0 0-1 1-1 1-3 3-7 5-10 1-4 4-7 6-10 1-4 4-7 7-11 2-3 4-6 6-9 0 0 0 0 1-1 3-2 4-6 7-8 0-1 1-1 1-2 2-3 4-5 6-8 1-1 1-2 2-2 1-1 4-4 6-5 0-1 1-2 2-3 2-2 4-3 5-5 2-1 3-3 4-4 2 0 3-2 5-3 1-2 3-3 5-4 1-1 2-2 3-3 3-2 5-3 7-5 1-1 2-1 3-2 2-1 5-3 7-6 1 0 1 0 2 0 3-2 6-5 9-6 0 0 0 0 1 0 4-2 7-5 11-6 6-4 14-8 22-11 3-1 7-2 11-4 0 0 1 0 1 0 3-1 6-2 10-3 1 0 2-1 2-1 4-1 6-2 10-3 2 0 2-1 4-1 3 0 5 0 8-1 2-1 4-1 7-1 1 0 3-1 5-1 3-1 6-1 9-1 1 0 2 0 4 0 3 0 7-1 11-1 0 0 0 0 1 0 5 0 8 0 12 0 1 0 1 0 2 0 4 0 8 0 12 0 0 0 1 0 1 0 4 0 9 1 13 1 18 2 35 6 52 11-4 5-6 10-8 16-8-2-16-4-25-6-11-2-22-3-34-4-1 0-2 0-2 0-4 0-6 0-10 0-1 0-1 0-2 0-3 0-7 0-11 0-1 0-1 0-1 0-4 0-7 1-11 1 0 0-1 0-2 0-3 0-6 1-9 1-1 0-3 1-5 1-2 0-4 1-7 1-2 0-4 0-6 1-2 0-3 1-5 1-2 1-6 2-8 3-1 0-2 1-3 1-3 0-7 1-9 3 0 0-1 0-1 0-3 1-7 3-10 4-4 2-7 4-11 5-3 1-6 3-10 5-3 1-6 3-9 5 0 0 0 0-1 0-3 1-6 3-9 5 0 0 0 1 0 1-3 1-6 3-8 5-1 1-2 1-2 2-2 1-4 3-6 5-1 1-1 1-3 2-2 2-4 3-5 5-2 0-3 2-5 3-1 1-2 2-3 3-2 2-3 3-5 5-1 0-2 1-3 2-1 2-3 4-5 6-1 1-1 2-1 2-2 0-5 2-6 4 0 0-1 1-1 1-2 3-5 5-6 8 0 0 0 0-1 0-3 3-4 6-6 9-2 3-4 6-6 9-2 4-4 7-6 11 0 0 0 0 0 1-2 3-3 6-5 9 0 0 0 1-1 1-2 3-3 6-4 9 0 1-1 2-1 3-1 2-3 5-4 8 0 2 0 3-1 4-1 3-2 5-3 7-1 2-1 5-2 6 0 2 0 4-1 5-1 3-2 6-2 9 0 1-1 2-1 3-1 3-2 6-2 10 0 1 0 1 0 1 0 4 0 7-1 12 0 0 0 0 0 1 0 3-1 6-1 9 0 1 0 2 0 4 0 2 0 3 0 4 0 3 0 5 0 9 0 1 0 1 0 2 0 3 0 6 0 11 0 1 0 1 0 1 0 4 1 7 1 11 0 0 0 1 0 3 0 3 1 6 1 9 0 1 0 3 0 5 0 2 1 4 1 6 1 3 1 5 2 7 0 2 1 3 1 5 1 2 2 6 2 8 0 1 1 2 1 3 1 3 2 7 4 9 0 0 0 1 0 1 1 3 2 7 4 10 2 4 3 7 4 10 2 4 4 7 5 11 2 3 4 6 5 9 0 0 0 0 0 1 2 2 4 6 6 8 0 1 0 1 0 2 2 3 4 5 6 8 0 1 0 2 1 2 2 2 4 5 5 6 1 1 2 2 3 4 2 1 3 3 4 5 1 2 3 2 4 4 1 2 2 3 3 4 2 1 3 3 4 5 1 1 2 1 3 2 2 2 3 4 6 5 1 1 2 1 2 2 4-1 6 2 8 3 0 0 1 1 1 1 3 3 5 5 8 6 0 0 0 0 0 0 3 3 6 5 9 6 3 2 6 5 9 6 4 2 7 5 11 6 3 2 6 4 10 5 0 0 1 0 1 1 3 2 6 3 9 4 1 0 2 1 3 1 2 1 5 3 8 4 2 1 3 1 4 1 3 1 5 2 7 3 2 1 5 1 6 2 2 1 4 1 5 1 3 1 6 2 9 2 1 0 2 1 3 1 3 1 6 2 10 2 1 0 1 0 1 0 4 1 7 1 12 1 0 0 0 0 0 0 3 0 6 1 9 1 2 0 2 0 4 0 2 0 3 0 4 0 3 0 6 0 9 0 1 0 1 0 2 0 3 0 7 0 11 0 1 0 1 0 2 0 3 0 6-1 10-1 1 0 1 0 3 0 3 0 6 0 9 0 1 0 3-1 5-1 2 0 4-1 6-1 2-1 5-1 7-2 1 0 2-1 4-1 2-1 6-1 8-2 1 0 2-1 3-1 3-1 7-2 9-4 0 0 1 0 1 0 4 0 7-2 10-4 4-2 7-3 11-4 3-2 7-4 10-5 3-2 6-4 9-5 0 0 1 0 1 0 3-2 6-4 9-5 1 0 1-1 1-1 3-2 6-4 8-5 1-1 2-1 3-2 1-2 4-4 6-5 0-1 1-2 3-3 2-2 3-2 5-4 2-1 3-3 4-4 1 0 3-2 4-3 2-2 3-3 5-4 1-1 2-2 3-3 1-1 3-3 5-6 0-1 0-1 1-1 2-3 5-5 6-7 0 0 1-1 1-1 2-3 4-5 6-8 0 0 0 0 1-1 3-2 4-6 6-8 2-4 4-6 6-10 2-3 4-6 6-10 2-3 3-7 5-10 0 0 0-1 1-1 2-3 2-6 4-9 0-1 1-2 1-3 1-2 3-5 3-8 1-2 1-3 2-5 1-2 2-4 3-6 1-2 1-5 1-6 1-2 1-4 2-6 1-2 2-6 2-8 0-1 1-2 1-3 1-3 1-6 1-10 0-1 0-1 0-2 1-3 1-6 2-11 0-1 0-1 0-1 1-5 1-9 1-14 0-2 0-3 0-4 0-3 0-6 0-9 0-2 0-6 0-8 0-2 0-4 0-6 0-2-1-5-1-8 0-2 0-3-1-6 0-3-1-4-1-7 0-2 0-4 0-7 0-1-1-3-1-5-1-2-1-6-2-8 0-1-1-2-1-3-1-3-2-7-2-10 0 0 0 0 0-1-10-30-24-57-44-80 0-1-1-1-1-2-2-2-5-6-8-8-1-2-2-3-4-5-1-1-3-3-5-5-4-4-8-8-13-12l-1 49-18 0 1-78 78 0 0 19-45 0c2 3 6 5 8 8 0 0 0 0 1 1 2 1 4 3 5 5 2 1 3 2 5 4 2 2 5 6 7 8 1 1 1 2 2 2 20 25 37 55 47 86 0 0 0 1 0 1 1 4 2 7 3 11 0 1 1 3 1 4 1 2 2 6 2 8 0 2 1 4 1 6 1 3 1 5 1 7 0 3 0 5 0 8 0 1 0 4 1 6 0 3 1 6 1 9 0 2 0 3 0 6 0 3 0 6 0 9 0 1 0 1 0 2 1 4 1 6 1 9z"/>
<glyph glyph-name="segundo" unicode="&#60;" d="M329 148l-146 0 0 25 56 56c16 17 27 28 32 36 5 6 10 13 12 19 3 6 4 13 4 20 0 9-3 17-9 23-6 6-13 8-24 8-8 0-16-1-24-4-7-3-16-8-26-16l-19 23c12 10 23 17 35 21 12 5 23 6 36 6 20 0 36-5 48-15 12-10 18-25 18-42 0-9-2-19-5-27-4-9-9-18-17-27-6-9-18-21-35-37l-38-38 0-2 102 0z m183 116c0 1 0 3 0 5 0 5-1 9-1 14 0 1 0 1 0 2 0 3-1 8-2 11 0 1 0 1 0 2 0 3 0 7-1 11 0 1-1 2-1 3-1 4-2 6-3 10-1 1-1 3-1 5-1 2-1 4-2 7-1 2-2 5-3 7-1 2-1 3-1 5-1 3-3 6-4 9 0 1-1 2-1 3-1 3-3 6-4 10 0 0 0 1-1 1-1 3-3 6-5 11-4 7-8 14-13 21-2 3-4 7-6 9 0 0 0 0 0 1-3 3-5 6-7 9 0 0-1 1-1 1-2 2-4 5-7 7-1 1-1 2-2 2-1 2-4 4-6 6-1 1-1 2-2 3-2 1-4 3-5 5-2 1-3 2-5 3-1 1-2 3-4 4-2 1-3 3-5 4-1 1-3 2-3 2-4 2-6 4-8 6-1 0-2 0-3 1-2 2-5 4-7 5-1 0-1 1-2 1-3 2-6 4-9 6 0 0-1 0-1 0-4 2-7 4-11 6-3 2-6 4-11 5-3 2-7 4-11 5-3 2-7 3-11 5 0 0-1 0-1 0-3 0-6 2-10 3-1 0-2 1-2 1-4 1-6 2-10 2-2 0-3 1-4 1-3 1-5 1-8 2-2 1-4 1-7 1-1 0-3 1-5 1-3 1-6 1-9 1-1 0-3 0-4 0-3 0-7 0-11 0 0 0 0 0-1 0-4 0-8 0-12 0-1 0-1 0-2 0-3 0-6 0-9 0-1 0-3 0-4 0-2 0-2 0-4 0-3 0-6 0-9 0-1 0-1 0-2 0-4-1-8-1-11-2-1 0-1 0-2 0-3-1-8-1-11-2-1 0-2-1-3-1-4-1-6-1-10-2-2 1-3 1-5 0-3-1-4-1-7-2-2-1-5-2-7-3-2 0-3 0-5-1-3-1-6-3-8-4-1 0-2 0-3 0-3-2-7-3-10-5 0 0-1 0-1-1-3-1-7-3-10-5-4-1-7-4-10-6-4-1-7-4-11-7-3-2-6-4-9-6 0 0 0 0-1-1-2-3-6-4-8-7 0 0-1-1-2-1-3-2-5-4-8-6-1-1-2-2-2-2-3-2-5-4-6-6-1 0-3-2-4-3-1-2-3-3-4-5-2-1-3-3-4-3-1-2-3-3-4-5-1-1-3-3-4-5-1-1-2-2-3-3-2-3-4-5-6-7 0-1 0-2-1-3-2-2-4-5-6-7 0-1-1-1-1-2-2-3-4-6-6-9 0 0 0-1 0-1-2-4-4-7-6-11-2-3-3-6-5-11-2-3-4-7-5-11-2-3-3-7-4-11 0 0 0-1 0-1-1-3-3-6-4-10 0-1-1-2-1-2-1-4-1-6-2-10 0-2-1-2-1-4-1-3-1-5-2-8-1-2-1-4-1-7 0-1-1-3-1-5 0-3 0-6 0-9 0-1 0-3 0-4 0-3-1-7-1-11 0 0 0 0 0-1 0-4 0-8 0-12 0-1 0-1 0-2 0-3 0-6 0-9 0-1 0-3 0-4 0-2 0-2 0-4 0-3 0-6 1-9 0-1 0-1 0-2 0-4 0-8 1-12 0-1 0-1 0-2 1-3 1-7 2-11 0-1 1-2 1-3 1-4 2-6 2-10 0-1 0-2 1-4 1-3 1-4 2-7 1-2 2-5 3-7 0-2 0-3 1-5 1-3 3-6 4-8 0-1 0-2 0-3 2-3 3-7 5-10 0 0 0-1 1-1 1-3 3-7 5-10 1-4 4-7 6-10 1-4 4-7 7-11 2-3 4-6 6-9 0 0 0 0 1-1 3-2 4-6 7-8 0-1 1-1 1-2 2-3 4-5 6-8 1-1 1-2 2-2 1-1 4-4 6-5 0-1 1-2 2-3 2-2 4-3 5-5 2-1 3-3 4-4 2 0 3-2 5-3 1-2 3-3 5-4 1-1 2-2 3-3 3-2 5-3 7-5 1-1 2-1 3-2 2-1 5-3 7-6 1 0 1 0 2 0 3-2 6-5 9-6 0 0 0 0 1 0 4-2 7-5 11-6 6-4 14-8 22-11 3-1 7-2 11-4 0 0 1 0 1 0 3-1 6-2 10-3 1 0 2-1 2-1 4-1 6-2 10-3 2 0 2-1 4-1 3 0 5 0 8-1 2-1 4-1 7-1 1 0 3-1 5-1 3-1 6-1 9-1 1 0 2 0 4 0 3 0 7-1 11-1 0 0 0 0 1 0 5 0 8 0 12 0 1 0 1 0 2 0 4 0 8 0 12 0 0 0 1 0 1 0 4 0 9 1 13 1 18 2 35 6 52 11-4 5-6 10-8 16-8-2-16-4-25-6-11-2-22-3-34-4-1 0-2 0-2 0-4 0-6 0-10 0-1 0-1 0-2 0-3 0-7 0-11 0-1 0-1 0-1 0-4 0-7 1-11 1 0 0-1 0-2 0-3 0-6 1-9 1-1 0-3 1-5 1-2 0-4 1-7 1-2 0-4 0-6 1-2 0-3 1-5 1-2 1-6 2-8 3-1 0-2 1-3 1-3 0-7 1-9 3 0 0-1 0-1 0-3 1-7 3-10 4-4 2-7 4-11 5-3 1-6 3-10 5-3 1-6 3-9 5 0 0 0 0-1 0-3 1-6 3-9 5 0 0 0 1 0 1-3 1-6 3-8 5-1 1-2 1-2 2-2 1-4 3-6 5-1 1-1 1-3 2-2 2-4 3-5 5-2 0-3 2-5 3-1 1-2 2-3 3-2 2-3 3-5 5-1 0-2 1-3 2-1 2-3 4-5 6-1 1-1 2-1 2-2 0-5 2-6 4 0 0-1 1-1 1-2 3-5 5-6 8 0 0 0 0-1 0-3 3-4 6-6 9-2 3-4 6-6 9-2 4-4 7-6 11 0 0 0 0 0 1-2 3-3 6-5 9 0 0 0 1-1 1-2 3-3 6-4 9 0 1-1 2-1 3-1 2-3 5-4 8 0 2 0 3-1 4-1 3-2 5-3 7-1 2-1 5-2 6 0 2 0 4-1 5-1 3-2 6-2 9 0 1-1 2-1 3-1 3-2 6-2 10 0 1 0 1 0 1 0 4 0 7-1 12 0 0 0 0 0 1 0 3-1 6-1 9 0 1 0 2 0 4 0 2 0 3 0 4 0 3 0 5 0 9 0 1 0 1 0 2 0 3 0 6 0 11 0 1 0 1 0 1 0 4 1 7 1 11 0 0 0 1 0 3 0 3 1 6 1 9 0 1 0 3 0 5 0 2 1 4 1 6 1 3 1 5 2 7 0 2 1 3 1 5 1 2 2 6 2 8 0 1 1 2 1 3 1 3 2 7 4 9 0 0 0 1 0 1 1 3 2 7 4 10 2 4 3 7 4 10 2 4 4 7 5 11 2 3 4 6 5 9 0 0 0 0 0 1 2 2 4 6 6 8 0 1 0 1 0 2 2 3 4 5 6 8 0 1 0 2 1 2 2 2 4 5 5 6 1 1 2 2 3 4 2 1 3 3 4 5 1 2 3 2 4 4 1 2 2 3 3 4 2 1 3 3 4 5 1 1 2 1 3 2 2 2 3 4 6 5 1 1 2 1 2 2 4-1 6 2 8 3 0 0 1 1 1 1 3 3 5 5 8 6 0 0 0 0 0 0 3 3 6 5 9 6 3 2 6 5 9 6 4 2 7 5 11 6 3 2 6 4 10 5 0 0 1 0 1 1 3 2 6 3 9 4 1 0 2 1 3 1 2 1 5 3 8 4 2 1 3 1 4 1 3 1 5 2 7 3 2 1 5 1 6 2 2 1 4 1 5 1 3 1 6 2 9 2 1 0 2 1 3 1 3 1 6 2 10 2 1 0 1 0 1 0 4 1 7 1 12 1 0 0 0 0 0 0 3 0 6 1 9 1 2 0 2 0 4 0 2 0 3 0 4 0 3 0 6 0 9 0 1 0 1 0 2 0 3 0 7 0 11 0 1 0 1 0 2 0 3 0 6-1 10-1 1 0 1 0 3 0 3 0 6 0 9 0 1 0 3-1 5-1 2 0 4-1 6-1 2-1 5-1 7-2 1 0 2-1 4-1 2-1 6-1 8-2 1 0 2-1 3-1 3-1 7-2 9-4 0 0 1 0 1 0 4 0 7-2 10-4 4-2 7-3 11-4 3-2 7-4 10-5 3-2 6-4 9-5 0 0 1 0 1 0 3-2 6-4 9-5 1 0 1-1 1-1 3-2 6-4 8-5 1-1 2-1 3-2 1-2 4-4 6-5 0-1 1-2 3-3 2-2 3-2 5-4 2-1 3-3 4-4 1 0 3-2 4-3 2-2 3-3 5-4 1-1 2-2 3-3 1-1 3-3 5-6 0-1 0-1 1-1 2-3 5-5 6-7 0 0 1-1 1-1 2-3 4-5 6-8 0 0 0 0 1-1 3-2 4-6 6-8 2-4 4-6 6-10 2-3 4-6 6-10 2-3 3-7 5-10 0 0 0-1 1-1 2-3 2-6 4-9 0-1 1-2 1-3 1-2 3-5 3-8 1-2 1-3 2-5 1-2 2-4 3-6 1-2 1-5 1-6 1-2 1-4 2-6 1-2 2-6 2-8 0-1 1-2 1-3 1-3 1-6 1-10 0-1 0-1 0-2 1-3 1-6 2-11 0-1 0-1 0-1 1-5 1-9 1-14 0-2 0-3 0-4 0-3 0-6 0-9 0-2 0-6 0-8 0-2 0-4 0-6 0-2-1-5-1-8 0-2 0-3-1-6 0-3-1-4-1-7 0-2 0-4 0-7 0-1-1-3-1-5-1-2-1-6-2-8 0-1-1-2-1-3-1-3-2-7-2-10 0 0 0 0 0-1-10-30-24-57-44-80 0-1-1-1-1-2-2-2-5-6-8-8-1-2-2-3-4-5-1-1-3-3-5-5-4-4-8-8-13-12l-1 49-18 0 1-78 78 0 0 19-45 0c2 3 6 5 8 8 0 0 0 0 1 1 2 1 4 3 5 5 2 1 3 2 5 4 2 2 5 6 7 8 1 1 1 2 2 2 20 25 37 55 47 86 0 0 0 1 0 1 1 4 2 7 3 11 0 1 1 3 1 4 1 2 2 6 2 8 0 2 1 4 1 6 1 3 1 5 1 7 0 3 0 5 0 8 0 1 0 4 1 6 0 3 1 6 1 9 0 2 0 3 0 6 0 3 0 6 0 9 0 1 0 1 0 2 1 4 1 6 1 9z"/>
<glyph glyph-name="pago" unicode="&#62;" d="M384 350l-162-207-94 93 18 20 74-74 145 187z m97-216c2 3 3 5 5 8 0 0 0 1 0 1 1 4 3 7 6 11 0 0 0 1 0 1 4 9 7 18 11 28 1 4 2 8 3 12 0 2 1 3 1 5 1 3 2 6 2 9 0 2 0 3 0 5 1 3 1 6 1 9 0 1 1 3 1 6 0 2 1 5 1 8 0 2 0 4 1 6 0 3 0 5 0 8 0 2 0 3 0 6 0 43-10 82-29 118 0 0-1 0-1 1-2 3-3 5-4 8-1 2-2 3-3 4-1 2-2 3-2 5-2 2-4 5-5 6 0 1-1 1-1 2-23 32-52 60-90 80-6 4-13 7-20 10 0 1-2 1-3 1-3 1-4 2-7 3-2 1-3 2-5 2-3 0-4 1-7 2-1 1-3 1-6 2-1 1-4 1-6 2-1 0-3 0-5 1-2 1-4 1-6 2-2 1-4 1-6 2-2 0-4 1-6 1-2 0-4 0-7 0-1 0-3 1-6 1-2 0-5 1-6 1-2 0-3 0-5 0-6 1-14 1-21 1-43 0-82-10-118-29-1 0-1-1-1-1-3-2-6-2-8-4-1 0-3-1-4-2-1-1-2-2-4-2-2-2-5-4-7-5-1 0-1-1-1-1-34-23-62-52-82-90-4-6-7-13-10-20-1 0-1-2-1-3-1-3-2-4-3-7-1-2-2-3-2-5 0-2-1-4-2-7-1-1-2-3-2-6-1-1-1-4-2-6 0-1 0-3-1-5-1-2-1-4-2-6-1-2-1-4-2-6 0-2-1-4-1-6 0-2 0-4 0-7 0-1-1-3-1-5 0-2-1-5-1-7 0-2 0-3 0-5-1-6-1-14-1-21 0-43 10-82 29-118 0-1 1-1 1-1 2-3 2-6 4-8 0-1 1-3 2-4 1-1 2-2 2-4 2-2 4-5 5-7 0-1 1-1 1-1 22-34 52-62 89-81 8-5 15-8 22-11 2-1 5-1 6-2 2-1 4-1 5-2 4-1 6-2 10-3 1 0 1 0 1-1 4-1 7-3 11-4 0 0 1 0 1 0 3 0 7-1 11-2 3-1 7-2 11-3 14-2 29-3 43-3 33 0 64 6 93 17 53 20 100 59 130 112 0 0 0 0 0 1 3 0 3 1 4 3z m-257-114c-7 1-13 2-20 4-1 0-1 0-2 0-6 2-13 3-19 5 0 0 0 0-1 1-6 2-13 4-19 7-1 0-1 1-2 1-6 2-12 5-17 8-34 18-63 44-84 76 0 0-1 1-1 1-2 2-3 4-4 7-1 1-2 2-3 4-1 2-2 3-3 4-1 3-2 5-4 7 0 1-1 1-1 2-20 39-29 84-25 129 0 0 0 2 0 3 0 3 1 4 1 7 0 2 0 3 0 5 0 2 1 4 1 6 0 2 1 3 1 6 0 2 1 4 2 6 1 2 1 3 2 6 0 2 0 3 1 6 1 2 1 3 2 6 1 2 1 3 2 5 1 2 1 4 1 6 1 2 1 3 2 5 1 2 2 4 3 6 1 1 1 3 1 3 18 41 47 76 84 101 1 0 1 1 2 1 2 2 4 3 7 4 1 1 2 2 4 3 2 1 2 2 4 2 3 2 4 3 7 5 1 0 1 0 2 0 39 21 84 29 128 26 2 0 3 0 5 0 2 0 4-1 7-1 1 0 3 0 5-1 1 0 4 0 6 0 1 0 4-1 6-1 1 0 3-1 6-1 1-1 4-1 6-2 1-1 3-1 5-2 1 0 4 0 6-1 1-1 3-1 5-2 2-1 4-2 6-2 1-1 3-1 4-1 3-1 4-2 7-3 1-1 2-1 3-2 41-18 76-47 102-84 0 0 1-1 1-1 1-3 2-4 4-7 1-2 2-2 3-4 0-2 1-3 2-4 2-3 3-5 4-7 0-1 1-1 1-2 18-35 27-75 27-114 0-3 0-5 0-7 0-2 0-4 0-6 0-3 0-5-1-8 0-1 0-3-1-5 0-2-1-5-1-8 0-1-1-3-1-5-1-2-1-6-1-8 0-1-1-3-1-4-1-4-2-7-4-12 0 0 0 0 0 0-2-9-6-17-9-26-16-37-41-69-72-94-20-16-43-29-68-37 0 0-1 0-1 0-8-3-15-6-23-7-1 0-2 0-3-1-4-1-7-2-11-3-13-2-27-3-41-3-14 0-25 1-35 2z"/>
<glyph glyph-name="parcialmente-sentado" unicode="&#63;" d="M278 19l2-18c19 2 37 5 55 11l-6 17c-17-5-34-9-51-10z m232 275c-2 17-7 36-14 53l-17-6c6-16 10-33 13-50z m-168 203c-18 6-36 11-54 13l-2-18c17-1 34-6 50-12z m56-433l10-15c15 12 29 24 41 38l-14 12c-11-14-24-25-37-35z m79 100l16-7c7 17 13 35 16 53l-17 3c-3-17-8-33-15-49z m-62 293l-11-13c13-11 25-23 36-36l14 11c-11 14-25 27-39 38z m-172-439c-3 0-7 1-11 1-1 0-2 0-2 0-4 0-7 1-11 1-1 0-1 0-3 1-4 1-6 1-9 2-27 6-51 15-73 29-15 9-28 20-41 32-19 18-34 38-47 61-2 3-4 8-6 12-2 3-3 8-5 11 0 0 0 1 0 1-2 3-3 7-4 10 0 1 0 1-1 2-1 3-2 7-4 10-6 21-8 42-8 64 0 6 0 12 1 18 0 3 0 5 1 8 0 1 0 2 0 4 0 3 1 6 1 9 0 0 0 2 1 3 1 3 1 6 2 9 0 1 1 3 1 4 1 3 1 6 2 9 7 26 19 50 34 72 9 14 21 27 34 39 18 18 41 33 65 43 4 1 7 3 11 5 0 0 1 0 1 1 3 1 7 2 11 4 0 0 0 0 0 0 4 1 8 3 12 3 0 0 1 0 1 0 5 1 9 2 13 3 15 3 32 5 49 5l0 18c-23 0-46-3-66-9 0 0-1 0-1 0-4 0-8-2-13-3 0 0-1 0-1 0-4-2-7-3-11-4 0 0-1 0-1 0-5-2-8-4-12-5-69-33-121-92-142-165 0-1 0-1-1-2-1-3-1-6-2-9 0-1-1-3-1-4-1-3-2-6-2-9 0-2-1-2-1-4-1-4-1-6-1-10 0-1 0-2-1-4 0-2-1-6-1-8 0-2 0-3 0-5 0-5-1-10-1-15 0-23 3-46 9-67 0-1 1-2 1-2 1-4 2-7 4-10 0-1 1-2 1-3 0-3 2-8 4-11 0-1 1-1 1-2 1-4 3-7 5-11 0 0 0-1 0-1 33-71 98-125 177-143 0 0 1 0 1 0 4-1 7-2 9-2 1 0 3-1 4-1 3 0 7 0 10-1 1 0 2 0 3 0 4-1 7-1 12-1 0 0 0 0 1 0 5 0 10 0 14 0l0 18c-4 0-9 0-13 0 1-1 1-1 0-1z m-100 95l229 0 0-22-229 0z m174 137l-7-18 34-11 7-65-186 0 7 65 34 11-6 18-45-15-12-98 229 0-11 98z m-59 189c-47 0-86-39-86-86 0-47 39-85 86-85 47 0 85 37 85 85-1 47-39 86-85 86z m0-150c-36 0-66 30-66 66 0 36 29 66 66 66 36 0 66-30 65-66 0-37-29-66-65-66z"/>
<glyph glyph-name="postre" unicode="&#82;" d="M322 314c0-14-5-25-12-34-8-9-19-15-34-18l0-1c18-2 30-8 39-16 8-9 13-20 13-34 0-21-8-37-23-48-14-11-34-17-62-17-24 0-43 4-60 12l0 31c10-5 19-8 29-11 11-2 20-3 29-3 17 0 30 3 37 9 9 6 12 16 12 28 0 12-4 20-14 25-9 5-23 8-42 8l-19 0 0 28 19 0c34 0 51 12 51 35 0 9-3 16-9 21-5 6-14 8-26 8-8 0-16-1-23-3-8-3-16-7-26-14l-18 24c20 14 43 21 69 21 21 0 38-4 50-13 14-9 20-22 20-38z m190-50c0 1 0 3 0 5 0 5-1 9-1 14 0 1 0 1 0 2 0 3-1 8-2 11 0 1 0 1 0 2 0 3 0 7-1 11 0 1-1 2-1 3-1 4-2 6-3 10-1 1-1 3-1 5-1 2-1 4-2 7-1 2-2 5-3 7-1 2-1 3-1 5-1 3-3 6-4 9 0 1-1 2-1 3-1 3-3 6-4 10 0 0 0 1-1 1-1 3-3 6-5 11-4 7-8 14-13 21-2 3-4 7-6 9 0 0 0 0 0 1-3 3-5 6-7 9 0 0-1 1-1 1-2 2-4 5-7 7-1 1-1 2-2 2-1 2-4 4-6 6-1 1-1 2-2 3-2 1-4 3-5 5-2 1-3 2-5 3-1 1-2 3-4 4-2 1-3 3-5 4-1 1-3 2-3 2-4 2-6 4-8 6-1 0-2 0-3 1-2 2-5 4-7 5-1 0-1 1-2 1-3 2-6 4-9 6 0 0-1 0-1 0-4 2-7 4-11 6-3 2-6 4-11 5-3 2-7 4-11 5-3 2-7 3-11 5 0 0-1 0-1 0-3 0-6 2-10 3-1 0-2 1-2 1-4 1-6 2-10 2-2 0-3 1-4 1-3 1-5 1-8 2-2 1-4 1-7 1-1 0-3 1-5 1-3 1-6 1-9 1-1 0-3 0-4 0-3 0-7 0-11 0 0 0 0 0-1 0-4 0-8 0-12 0-1 0-1 0-2 0-3 0-6 0-9 0-1 0-3 0-4 0-2 0-2 0-4 0-3 0-6 0-9 0-1 0-1 0-2 0-4-1-8-1-11-2-1 0-1 0-2 0-3-1-8-1-11-2-1 0-2-1-3-1-4-1-6-1-10-2-2 1-3 1-5 0-3-1-4-1-7-2-2-1-5-2-7-3-2 0-3 0-5-1-3-1-6-3-8-4-1 0-2 0-3 0-3-2-7-3-10-5 0 0-1 0-1-1-3-1-7-3-10-5-4-1-7-4-10-6-4-1-7-4-11-7-3-2-6-4-9-6 0 0 0 0-1-1-2-3-6-4-8-7 0 0-1-1-2-1-3-2-5-4-8-6-1-1-2-2-2-2-3-2-5-4-6-6-1 0-3-2-4-3-1-2-3-3-4-5-2-1-3-3-4-3-1-2-3-3-4-5-1-1-3-3-4-5-1-1-2-2-3-3-2-3-4-5-6-7 0-1 0-2-1-3-2-2-4-5-6-7 0-1-1-1-1-2-2-3-4-6-6-9 0 0 0-1 0-1-2-4-4-7-6-11-2-3-3-6-5-11-2-3-4-7-5-11-2-3-3-7-4-11 0 0 0-1 0-1-1-3-3-6-4-10 0-1-1-2-1-2-1-4-1-6-2-10 0-2-1-2-1-4-1-3-1-5-2-8-1-2-1-4-1-7 0-1-1-3-1-5 0-3 0-6 0-9 0-1 0-3 0-4 0-3-1-7-1-11 0 0 0 0 0-1 0-4 0-8 0-12 0-1 0-1 0-2 0-3 0-6 0-9 0-1 0-3 0-4 0-2 0-2 0-4 0-3 0-6 1-9 0-1 0-1 0-2 0-4 0-8 1-12 0-1 0-1 0-2 1-3 1-7 2-11 0-1 1-2 1-3 1-4 2-6 2-10 0-1 0-2 1-4 1-3 1-4 2-7 1-2 2-5 3-7 0-2 0-3 1-5 1-3 3-6 4-8 0-1 0-2 0-3 2-3 3-7 5-10 0 0 0-1 1-1 1-3 3-7 5-10 1-4 4-7 6-10 1-4 4-7 7-11 2-3 4-6 6-9 0 0 0 0 1-1 3-2 4-6 7-8 0-1 1-1 1-2 2-3 4-5 6-8 1-1 1-2 2-2 1-1 4-4 6-5 0-1 1-2 2-3 2-2 4-3 5-5 2-1 3-3 4-4 2 0 3-2 5-3 1-2 3-3 5-4 1-1 2-2 3-3 3-2 5-3 7-5 1-1 2-1 3-2 2-1 5-3 7-6 1 0 1 0 2 0 3-2 6-5 9-6 0 0 0 0 1 0 4-2 7-5 11-6 6-4 14-8 22-11 3-1 7-2 11-4 0 0 1 0 1 0 3-1 6-2 10-3 1 0 2-1 2-1 4-1 6-2 10-3 2 0 2-1 4-1 3 0 5 0 8-1 2-1 4-1 7-1 1 0 3-1 5-1 3-1 6-1 9-1 1 0 2 0 4 0 3 0 7-1 11-1 0 0 0 0 1 0 5 0 8 0 12 0 1 0 1 0 2 0 4 0 8 0 12 0 0 0 1 0 1 0 4 0 9 1 13 1 18 2 35 6 52 11-4 5-6 10-8 16-8-2-16-4-25-6-11-2-22-3-34-4-1 0-2 0-2 0-4 0-6 0-10 0-1 0-1 0-2 0-3 0-7 0-11 0-1 0-1 0-1 0-4 0-7 1-11 1 0 0-1 0-2 0-3 0-6 1-9 1-1 0-3 1-5 1-2 0-4 1-7 1-2 0-4 0-6 1-2 0-3 1-5 1-2 1-6 2-8 3-1 0-2 1-3 1-3 0-7 1-9 3 0 0-1 0-1 0-3 1-7 3-10 4-4 2-7 4-11 5-3 1-6 3-10 5-3 1-6 3-9 5 0 0 0 0-1 0-3 1-6 3-9 5 0 0 0 1 0 1-3 1-6 3-8 5-1 1-2 1-2 2-2 1-4 3-6 5-1 1-1 1-3 2-2 2-4 3-5 5-2 0-3 2-5 3-1 1-2 2-3 3-2 2-3 3-5 5-1 0-2 1-3 2-1 2-3 4-5 6-1 1-1 2-1 2-2 0-5 2-6 4 0 0-1 1-1 1-2 3-5 5-6 8 0 0 0 0-1 0-3 3-4 6-6 9-2 3-4 6-6 9-2 4-4 7-6 11 0 0 0 0 0 1-2 3-3 6-5 9 0 0 0 1-1 1-2 3-3 6-4 9 0 1-1 2-1 3-1 2-3 5-4 8 0 2 0 3-1 4-1 3-2 5-3 7-1 2-1 5-2 6 0 2 0 4-1 5-1 3-2 6-2 9 0 1-1 2-1 3-1 3-2 6-2 10 0 1 0 1 0 1 0 4 0 7-1 12 0 0 0 0 0 1 0 3-1 6-1 9 0 1 0 2 0 4 0 2 0 3 0 4 0 3 0 5 0 9 0 1 0 1 0 2 0 3 0 6 0 11 0 1 0 1 0 1 0 4 1 7 1 11 0 0 0 1 0 3 0 3 1 6 1 9 0 1 0 3 0 5 0 2 1 4 1 6 1 3 1 5 2 7 0 2 1 3 1 5 1 2 2 6 2 8 0 1 1 2 1 3 1 3 2 7 4 9 0 0 0 1 0 1 1 3 2 7 4 10 2 4 3 7 4 10 2 4 4 7 5 11 2 3 4 6 5 9 0 0 0 0 0 1 2 2 4 6 6 8 0 1 0 1 0 2 2 3 4 5 6 8 0 1 0 2 1 2 2 2 4 5 5 6 1 1 2 2 3 4 2 1 3 3 4 5 1 2 3 2 4 4 1 2 2 3 3 4 2 1 3 3 4 5 1 1 2 1 3 2 2 2 3 4 6 5 1 1 2 1 2 2 4-1 6 2 8 3 0 0 1 1 1 1 3 3 5 5 8 6 0 0 0 0 0 0 3 3 6 5 9 6 3 2 6 5 9 6 4 2 7 5 11 6 3 2 6 4 10 5 0 0 1 0 1 1 3 2 6 3 9 4 1 0 2 1 3 1 2 1 5 3 8 4 2 1 3 1 4 1 3 1 5 2 7 3 2 1 5 1 6 2 2 1 4 1 5 1 3 1 6 2 9 2 1 0 2 1 3 1 3 1 6 2 10 2 1 0 1 0 1 0 4 1 7 1 12 1 0 0 0 0 0 0 3 0 6 1 9 1 2 0 2 0 4 0 2 0 3 0 4 0 3 0 6 0 9 0 1 0 1 0 2 0 3 0 7 0 11 0 1 0 1 0 2 0 3 0 6-1 10-1 1 0 1 0 3 0 3 0 6 0 9 0 1 0 3-1 5-1 2 0 4-1 6-1 2-1 5-1 7-2 1 0 2-1 4-1 2-1 6-1 8-2 1 0 2-1 3-1 3-1 7-2 9-4 0 0 1 0 1 0 4 0 7-2 10-4 4-2 7-3 11-4 3-2 7-4 10-5 3-2 6-4 9-5 0 0 1 0 1 0 3-2 6-4 9-5 1 0 1-1 1-1 3-2 6-4 8-5 1-1 2-1 3-2 1-2 4-4 6-5 0-1 1-2 3-3 2-2 3-2 5-4 2-1 3-3 4-4 1 0 3-2 4-3 2-2 3-3 5-4 1-1 2-2 3-3 1-1 3-3 5-6 0-1 0-1 1-1 2-3 5-5 6-7 0 0 1-1 1-1 2-3 4-5 6-8 0 0 0 0 1-1 3-2 4-6 6-8 2-4 4-6 6-10 2-3 4-6 6-10 2-3 3-7 5-10 0 0 0-1 1-1 2-3 2-6 4-9 0-1 1-2 1-3 1-2 3-5 3-8 1-2 1-3 2-5 1-2 2-4 3-6 1-2 1-5 1-6 1-2 1-4 2-6 1-2 2-6 2-8 0-1 1-2 1-3 1-3 1-6 1-10 0-1 0-1 0-2 1-3 1-6 2-11 0-1 0-1 0-1 1-5 1-9 1-14 0-2 0-3 0-4 0-3 0-6 0-9 0-2 0-6 0-8 0-2 0-4 0-6 0-2-1-5-1-8 0-2 0-3-1-6 0-3-1-4-1-7 0-2 0-4 0-7 0-1-1-3-1-5-1-2-1-6-2-8 0-1-1-2-1-3-1-3-2-7-2-10 0 0 0 0 0-1-10-30-24-57-44-80 0-1-1-1-1-2-2-2-5-6-8-8-1-2-2-3-4-5-1-1-3-3-5-5-4-4-8-8-13-12l-1 49-18 0 1-78 78 0 0 19-45 0c2 3 6 5 8 8 0 0 0 0 1 1 2 1 4 3 5 5 2 1 3 2 5 4 2 2 5 6 7 8 1 1 1 2 2 2 20 25 37 55 47 86 0 0 0 1 0 1 1 4 2 7 3 11 0 1 1 3 1 4 1 2 2 6 2 8 0 2 1 4 1 6 1 3 1 5 1 7 0 3 0 5 0 8 0 1 0 4 1 6 0 3 1 6 1 9 0 2 0 3 0 6 0 3 0 6 0 9 0 1 0 1 0 2 1 4 1 6 1 9z"/>
<glyph glyph-name="cancelada" unicode="&#56;" d="M256 0c-141 0-256 115-256 256 0 141 115 256 256 256 141 0 256-115 256-256 0-141-115-256-256-256z m0 494c-131 0-238-107-238-238 0-131 107-238 238-238 131 0 238 107 238 238 0 131-107 238-238 238z m89-309l-18-18-71 71-71-71-18 18 71 71-71 71 18 18 71-71 71 71 18-18-71-71z"/>
<glyph glyph-name="canceladossel" unicode="&#57;" d="M256 512c-141 0-256-115-256-256 0-141 115-256 256-256 141 0 256 115 256 256 0 141-115 256-256 256z m89-327l-18-18-72 72-71-71-18 18 71 71-71 71 18 18 71-71 71 71 18-18-71-71z"/>
<glyph glyph-name="noshow" unicode="&#33;" d="M369 269l0-27-226 0 0 27z m-113-269c-141 0-256 115-256 256 0 141 115 256 256 256 141 0 256-115 256-256 0-141-115-256-256-256z m0 494c-131 0-238-107-238-238 0-131 107-238 238-238 131 0 238 107 238 238 0 131-107 238-238 238z"/>
<glyph glyph-name="noshowsel" unicode="&#34;" d="M256 512c-141 0-256-115-256-256 0-141 115-256 256-256 141 0 256 115 256 256 0 141-115 256-256 256z m113-270l-226 0 0 26 226 0z"/>
<glyph glyph-name="libro" unicode="&#35;" d="M256 512c-141 0-256-115-256-256 0-141 115-256 256-256 141 0 256 115 256 256 0 141-115 256-256 256z m0-494c-131 0-238 107-238 238 0 131 107 238 238 238 131 0 238-107 238-238 0-131-107-238-238-238z m35 352c-15 0-27-7-35-19-9 12-21 19-37 19l-100 0 0-227 111 0 0 18-94 0 0 191 82 0c16 0 29-12 29-28l0-182 19 0 0 181c0 16 11 29 26 29l83 0 0-191-93 0 0-18 111 0-2 227z"/>
<glyph glyph-name="reservadasel" unicode="&#47;" d="M256 512c-141 0-256-115-256-256 0-141 115-256 256-256 141 0 256 115 256 256 0 141-115 256-256 256z m26-370l0 18 92 0 0 192-83 0c-15 0-26-13-26-29l0-180-18 0 0 181c0 16-13 28-29 28l-82 0 0-191 93 0 0-18-110 0 0 227 100 0c15 0 28-7 37-19 8 12 20 19 35 19l100 0 2-228z"/>
<glyph glyph-name="sentadosel" unicode="&#91;" d="M256 288c33 0 61 27 61 61 1 33-27 61-61 61-34 0-61-28-61-62 0-34 28-60 61-60z m0 224c-141 0-256-115-256-256 0-141 115-256 256-256 141 0 256 115 256 256 0 141-115 256-256 256z m0-84c44 0 79-36 79-80 0-44-35-79-79-79-44 0-79 36-79 79 0 44 35 80 79 80z m108-326l-216 0 0 22 215 0 0-22z m-216 43l12 91 42 15 5-17-30-10-8-62 174 0-6 62-32 10 6 17 42-15 11-91z"/>
<glyph glyph-name="waitlist" unicode="&#94;" d="M360 116l-208 0 0 244 35 0 0-18-18 0 0-208 173 0 0 208-17 0 0 18 35 0z m-52 209l-104 0 0 53 27 0c4 9 14 18 25 18 12 0 21-7 25-18l27 0z m-87 17l69 0 0 18-25 0 0 9c0 5-5 8-9 8-5 0-9-4-9-8l0-9-25 0 0-18z m-18-87l104 0 0-18-104 0z m0-34l104 0 0-18-104 0z m0-35l104 0 0-18-104 0z m0 105l44 0 0-18-44 0z m53 221c-141 0-256-115-256-256 0-141 115-256 256-256 141 0 256 115 256 256 0 141-115 256-256 256z m0-494c-131 0-238 107-238 238 0 131 107 238 238 238 131 0 238-107 238-238 0-131-107-238-238-238z"/>
<glyph glyph-name="waitlistsel" unicode="&#95;" d="M265 369c0 6-5 9-9 9-5 0-9-4-9-9l0-8-25 0 0-18 69 0 0 18-26 0 0 8z m-9 143c-141 0-256-115-256-256 0-141 115-256 256-256 141 0 256 115 256 256 0 141-115 256-256 256z m-52-134l27 0c4 9 14 18 25 18 12 0 21-7 25-18l27 0 0-53-104 0z m-1-87l44 0 0-18-44 0z m0-36l104 0 0-18-104 0z m0-34l104 0 0-18-104 0z m0-35l104 0 0-18-104 0z m157-70l-208 0 0 244 35 0 0-17-18 0 0-209 174 0 0 208-17 0 0 17 35 0 0-243z"/>
<glyph glyph-name="reservaadd" unicode="&#116;" d="M404 412l0-143-17 0 0 143z m64-63l0-16-145 0 0 16z m-72-125c-64 0-116 52-116 116 0 64 52 117 116 117 64 0 116-53 116-117 0-64-52-116-116-116z m0 211c-52 0-95-42-95-95 0-52 43-94 95-94 52 0 95 42 95 94 0 53-43 95-95 95z m2-226c-4 0-5 0-14 1l0-133-137 0 0-26 163 0 0 159c-9 0-9-1-12-1z m-127 157c2 10 4 17 10 27-12 0-21 0-21 0-22 0-41-12-53-28-12 17-33 28-55 28l-152 0 0-342 162 0 0 26-136 0 0 290 126 0c22 0 35-12 40-27 2-3 4-11 4-14 4-69 0-275 0-275l26 0 0 275c0 22 17 40 39 40z"/>
<glyph glyph-name="angle-down" unicode="&#37;" d="M399 302c0-3-1-5-3-7l-133-133c-2-2-5-3-7-3-2 0-5 1-7 3l-133 133c-2 2-3 4-3 7 0 2 1 4 3 6l15 15c1 1 4 2 6 2 3 0 5-1 7-2l112-113 112 113c2 1 4 2 7 2 2 0 5-1 6-2l15-15c2-2 3-4 3-6z"/>
<glyph glyph-name="finalizado" unicode="&#59;" d="M483 374c0 1-1 1-1 1-2 3-2 6-4 8-1 2-2 3-3 4-1 2-1 3-2 5-2 2-4 5-5 7 0 0 0 0 0 1-23 33-52 61-90 81-6 4-13 7-20 10 0 1-2 1-3 1-3 1-4 2-7 3-2 1-3 2-5 2-3 0-4 1-7 2-1 1-3 1-6 2-1 1-4 1-6 2-1 0-3 0-5 1-2 1-4 1-6 2-2 1-4 1-6 2-2 0-4 1-6 1-2 0-4 0-7 0-1 0-3 1-6 1-2 0-5 1-6 1-2 0-3 0-5 0-6 1-14 1-21 1-43 0-82-10-118-29-1 0-1-1-1-1-3-2-6-2-8-4-1 0-3-1-4-2-1-1-2-2-4-2-2-2-5-4-7-5-1 0-1-1-1-1-34-23-62-52-82-90-4-6-7-13-10-20-1 0-1-2-1-3-1-3-2-4-3-7-1-2-2-3-2-5 0-2-1-4-2-7-1-1-2-3-2-6-1-1-1-4-2-6 0-1 0-3-1-5-1-2-1-4-2-6-1-2-1-4-2-6 0-2-1-4-1-6 0-2 0-4 0-7 0-1-1-3-1-5 0-2-1-5-1-7 0-2 0-3 0-5-1-6-1-14-1-21 0-43 10-82 29-118 0-1 1-1 1-1 2-3 2-6 4-8 0-1 1-3 2-4 1-1 2-2 2-4 2-2 4-5 5-7 0-1 1-1 1-1 22-34 52-62 89-81 8-5 15-8 22-11 2-1 5-1 6-2 2-1 4-1 5-2 4-1 6-2 10-3 1 0 1 0 1-1 4-1 7-3 11-4 0 0 1 0 1 0 3 0 7-1 11-2 3-1 7-2 11-3 14-2 29-3 43-3 33 0 64 6 93 17 53 20 100 59 130 112 0 0 0 0 0 1 1 1 2 2 3 4 1 2 2 5 4 8 0 0 0 0 0 0 2 5 3 8 6 12 0 0 0 1 1 1 3 9 6 18 10 27 2 5 2 9 3 13 0 2 1 3 1 5 1 3 2 6 2 9 0 2 1 3 1 5 1 3 1 6 1 9 0 1 0 3 0 6 0 2 1 5 1 8 0 2 0 4 1 6 0 3 0 5 0 8 0 1 0 3 0 6 1 41-9 80-28 116z m-261-231l-94 93 18 20 74-74 145 187 19-19z"/>
<glyph glyph-name="pagando" unicode="&#61;" d="M512 264c0 1 0 3 0 5 0 5-1 9-1 14 0 1 0 1 0 2 0 3-1 8-2 11 0 1 0 1 0 2 0 3 0 7-1 11 0 1-1 2-1 3-1 4-2 6-3 10-1 1-1 3-1 5-1 2-1 4-2 7-1 2-2 5-3 7-1 2-1 3-1 5-1 3-3 6-4 9 0 1-1 2-1 3-1 3-3 6-4 10 0 0 0 1-1 1-1 3-3 6-5 11-4 7-8 14-13 21-2 3-4 7-6 9 0 0 0 0 0 1-3 3-5 6-7 9 0 0-1 1-1 1-2 2-4 5-7 7-1 1-1 2-2 2-1 2-4 4-6 6-1 1-1 2-2 3-2 1-4 3-5 5-2 1-3 2-5 3-1 1-2 3-4 4-2 1-3 3-5 4-1 1-3 2-3 2-4 2-6 4-8 6-1 0-2 0-3 1-2 2-5 4-7 5-1 0-1 1-2 1-3 2-6 4-9 6 0 0-1 0-1 0-4 2-7 4-11 6-3 2-6 4-11 5-3 2-7 4-11 5-3 2-7 3-11 5 0 0-1 0-1 0-3 0-6 2-10 3-1 0-2 1-2 1-4 1-6 2-10 2-2 0-3 1-4 1-3 1-5 1-8 2-2 1-4 1-7 1-1 0-3 1-5 1-3 1-6 1-9 1-1 0-3 0-4 0-3 0-7 0-11 0 0 0 0 0-1 0-4 0-8 0-12 0-1 0-1 0-2 0-3 0-6 0-9 0-1 0-3 0-4 0-2 0-2 0-4 0-3 0-6 0-9 0-1 0-1 0-2 0-4-1-8-1-11-2-1 0-1 0-2 0-3-1-8-1-11-2-1 0-2-1-3-1-4-1-6-1-10-2-2 1-3 1-5 0-3-1-4-1-7-2-2-1-5-2-7-3-2 0-3 0-5-1-3-1-6-3-8-4-1 0-2 0-3 0-3-2-7-3-10-5 0 0-1 0-1-1-3-1-7-3-10-5-4-1-7-4-10-6-4-1-7-4-11-7-3-2-6-4-9-6 0 0 0 0-1-1-2-3-6-4-8-7 0 0-1-1-2-1-3-2-5-4-8-6-1-1-2-2-2-2-3-2-5-4-6-6-1 0-3-2-4-3-1-2-3-3-4-5-2-1-3-3-4-3-1-2-3-3-4-5-1-1-3-3-4-5-1-1-2-2-3-3-2-3-4-5-6-7 0-1 0-2-1-3-2-2-4-5-6-7 0-1-1-1-1-2-2-3-4-6-6-9 0 0 0-1 0-1-2-4-4-7-6-11-2-3-3-6-5-11-2-3-4-7-5-11-2-3-3-7-4-11 0 0 0-1 0-1-1-3-3-6-4-10 0-1-1-2-1-2-1-4-1-6-2-10 0-2-1-2-1-4-1-3-1-5-2-8-1-2-1-4-1-7 0-1-1-3-1-5 0-3 0-6 0-9 0-1 0-3 0-4 0-3-1-7-1-11 0 0 0 0 0-1 0-4 0-8 0-12 0-1 0-1 0-2 0-3 0-6 0-9 0-1 0-3 0-4 0-2 0-2 0-4 0-3 0-6 1-9 0-1 0-1 0-2 0-4 0-8 1-12 0-1 0-1 0-2 1-3 1-7 2-11 0-1 1-2 1-3 1-4 2-6 2-10 0-1 0-2 1-4 1-3 1-4 2-7 1-2 2-5 3-7 0-2 0-3 1-5 1-3 3-6 4-8 0-1 0-2 0-3 2-3 3-7 5-10 0 0 0-1 1-1 1-3 3-7 5-10 1-4 4-7 6-10 1-4 4-7 7-11 2-3 4-6 6-9 0 0 0 0 1-1 3-2 4-6 7-8 0-1 1-1 1-2 2-3 4-5 6-8 1-1 1-2 2-2 1-1 4-4 6-5 0-1 1-2 2-3 2-2 4-3 5-5 2-1 3-3 4-4 2 0 3-2 5-3 1-2 3-3 5-4 1-1 2-2 3-3 3-2 5-3 7-5 1-1 2-1 3-2 2-1 5-3 7-6 1 0 1 0 2 0 3-2 6-5 9-6 0 0 0 0 1 0 4-2 7-5 11-6 6-4 14-8 22-11 3-1 7-2 11-4 0 0 1 0 1 0 3-1 6-2 10-3 1 0 2-1 2-1 4-1 6-2 10-3 2 0 2-1 4-1 3 0 5 0 8-1 2-1 4-1 7-1 1 0 3-1 5-1 3-1 6-1 9-1 1 0 2 0 4 0 3 0 7-1 11-1 0 0 0 0 1 0 5 0 8 0 12 0 1 0 1 0 2 0 4 0 8 0 12 0 0 0 1 0 1 0 4 0 9 1 13 1 18 2 35 6 52 11-4 5-6 10-8 16-8-2-16-4-25-6-11-2-22-3-34-4-1 0-2 0-2 0-4 0-6 0-10 0-1 0-1 0-2 0-3 0-7 0-11 0-1 0-1 0-1 0-4 0-7 1-11 1 0 0-1 0-2 0-3 0-6 1-9 1-1 0-3 1-5 1-2 0-4 1-7 1-2 0-4 0-6 1-2 0-3 1-5 1-2 1-6 2-8 3-1 0-2 1-3 1-3 0-7 1-9 3 0 0-1 0-1 0-3 1-7 3-10 4-4 2-7 4-11 5-3 1-6 3-10 5-3 1-6 3-9 5 0 0 0 0-1 0-3 1-6 3-9 5 0 0 0 1 0 1-3 1-6 3-8 5-1 1-2 1-2 2-2 1-4 3-6 5-1 1-1 1-3 2-2 2-4 3-5 5-2 0-3 2-5 3-1 1-2 2-3 3-2 2-3 3-5 5-1 0-2 1-3 2-1 2-3 4-5 6-1 1-1 2-1 2-2 0-5 2-6 4 0 0-1 1-1 1-2 3-5 5-6 8 0 0 0 0-1 0-3 3-4 6-6 9-2 3-4 6-6 9-2 4-4 7-6 11 0 0 0 0 0 1-2 3-3 6-5 9 0 0 0 1-1 1-2 3-3 6-4 9 0 1-1 2-1 3-1 2-3 5-4 8 0 2 0 3-1 4-1 3-2 5-3 7-1 2-1 5-2 6 0 2 0 4-1 5-1 3-2 6-2 9 0 1-1 2-1 3-1 3-2 6-2 10 0 1 0 1 0 1 0 4 0 7-1 12 0 0 0 0 0 1 0 3-1 6-1 9 0 1 0 2 0 4 0 2 0 3 0 4 0 3 0 5 0 9 0 1 0 1 0 2 0 3 0 6 0 11 0 1 0 1 0 1 0 4 1 7 1 11 0 0 0 1 0 3 0 3 1 6 1 9 0 1 0 3 0 5 0 2 1 4 1 6 1 3 1 5 2 7 0 2 1 3 1 5 1 2 2 6 2 8 0 1 1 2 1 3 1 3 2 7 4 9 0 0 0 1 0 1 1 3 2 7 4 10 2 4 3 7 4 10 2 4 4 7 5 11 2 3 4 6 5 9 0 0 0 0 0 1 2 2 4 6 6 8 0 1 0 1 0 2 2 3 4 5 6 8 0 1 0 2 1 2 2 2 4 5 5 6 1 1 2 2 3 4 2 1 3 3 4 5 1 2 3 2 4 4 1 2 2 3 3 4 2 1 3 3 4 5 1 1 2 1 3 2 2 2 3 4 6 5 1 1 2 1 2 2 4-1 6 2 8 3 0 0 1 1 1 1 3 3 5 5 8 6 0 0 0 0 0 0 3 3 6 5 9 6 3 2 6 5 9 6 4 2 7 5 11 6 3 2 6 4 10 5 0 0 1 0 1 1 3 2 6 3 9 4 1 0 2 1 3 1 2 1 5 3 8 4 2 1 3 1 4 1 3 1 5 2 7 3 2 1 5 1 6 2 2 1 4 1 5 1 3 1 6 2 9 2 1 0 2 1 3 1 3 1 6 2 10 2 1 0 1 0 1 0 4 1 7 1 12 1 0 0 0 0 0 0 3 0 6 1 9 1 2 0 2 0 4 0 2 0 3 0 4 0 3 0 6 0 9 0 1 0 1 0 2 0 3 0 7 0 11 0 1 0 1 0 2 0 3 0 6-1 10-1 1 0 1 0 3 0 3 0 6 0 9 0 1 0 3-1 5-1 2 0 4-1 6-1 2-1 5-1 7-2 1 0 2-1 4-1 2-1 6-1 8-2 1 0 2-1 3-1 3-1 7-2 9-4 0 0 1 0 1 0 4 0 7-2 10-4 4-2 7-3 11-4 3-2 7-4 10-5 3-2 6-4 9-5 0 0 1 0 1 0 3-2 6-4 9-5 1 0 1-1 1-1 3-2 6-4 8-5 1-1 2-1 3-2 1-2 4-4 6-5 0-1 1-2 3-3 2-2 3-2 5-4 2-1 3-3 4-4 1 0 3-2 4-3 2-2 3-3 5-4 1-1 2-2 3-3 1-1 3-3 5-6 0-1 0-1 1-1 2-3 5-5 6-7 0 0 1-1 1-1 2-3 4-5 6-8 0 0 0 0 1-1 3-2 4-6 6-8 2-4 4-6 6-10 2-3 4-6 6-10 2-3 3-7 5-10 0 0 0-1 1-1 2-3 2-6 4-9 0-1 1-2 1-3 1-2 3-5 3-8 1-2 1-3 2-5 1-2 2-4 3-6 1-2 1-5 1-6 1-2 1-4 2-6 1-2 2-6 2-8 0-1 1-2 1-3 1-3 1-6 1-10 0-1 0-1 0-2 1-3 1-6 2-11 0-1 0-1 0-1 1-5 1-9 1-14 0-2 0-3 0-4 0-3 0-6 0-9 0-2 0-6 0-8 0-2 0-4 0-6 0-2-1-5-1-8 0-2 0-3-1-6 0-3-1-4-1-7 0-2 0-4 0-7 0-1-1-3-1-5-1-2-1-6-2-8 0-1-1-2-1-3-1-3-2-7-2-10 0 0 0 0 0-1-10-30-24-57-44-80 0-1-1-1-1-2-2-2-5-6-8-8-1-2-2-3-4-5-1-1-3-3-5-5-4-4-8-8-13-12l-1 49-18 0 1-78 78 0 0 19-45 0c2 3 6 5 8 8 0 0 0 0 1 1 2 1 4 3 5 5 2 1 3 2 5 4 2 2 5 6 7 8 1 1 1 2 2 2 20 25 37 55 47 86 0 0 0 1 0 1 1 4 2 7 3 11 0 1 1 3 1 4 1 2 2 6 2 8 0 2 1 4 1 6 1 3 1 5 1 7 0 3 0 5 0 8 0 1 0 4 1 6 0 3 1 6 1 9 0 2 0 3 0 6 0 3 0 6 0 9 0 1 0 1 0 2 1 4 1 6 1 9z m-106-102l-300 0 0 188 301 0 0-188z m-281 19l263 0 0 150-263 0z m131 19c-31 0-56 24-56 56 0 32 24 56 56 56 32 0 56-24 56-56 0-32-24-56-56-56z m0 94c-20 0-38-18-38-38 0-20 18-38 38-38 20 0 38 18 38 38 0 20-17 38-38 38z m-113 18l38 0 0-18-38 0z m188 0l38 0 0-18-38 0z m0-94l38 0 0-18-38 0z m-188 0l38 0 0-18-38 0z"/>
<glyph glyph-name="sentado" unicode="&#93;" d="M256 280c36 0 66 30 66 66 1 35-29 65-66 65-37 0-66-30-66-65 0-36 30-66 66-66z m0 232c-141 0-256-115-256-256 0-141 115-256 256-256 141 0 256 115 256 256 0 141-115 256-256 256z m0-83c47 0 85-38 85-85 0-48-38-85-85-85-47 0-85 38-85 85 0 47 38 85 85 85z m114-346l-228 0 0 22 229 0 0-22z m-228 45l12 97 44 16 5-18-32-11-8-65 186 0-6 65-34 12 6 17 44-15 11-98z"/>
<glyph glyph-name="sentados" unicode="&#64;" d="M256 0c-141 0-256 115-256 256 0 141 115 256 256 256 141 0 256-115 256-256 0-141-115-256-256-256z m0 494c-131 0-238-107-238-238 0-131 107-238 238-238 131 0 238 107 238 238 0 131-107 238-238 238z m-108-370l215 0 0-22-215 0z m216 21l-216 0 12 91 42 15 5-17-30-10-8-61 174 0-6 61-32 10 6 17 42-15z m-108 123c-44 0-79 36-79 79 0 44 35 80 79 80 44 0 79-36 79-80 0-43-35-79-79-79z m0 142c-34 0-61-28-61-62 0-34 27-61 61-61 34 0 61 27 61 61 1 34-27 62-61 62z"/>
<glyph glyph-name="llegoparcialmente" unicode="&#84;" d="M258 425c-32 0-60-13-83-35-45-47-45-122 0-168l15 15c-37 39-37 100 0 139 18 19 42 29 68 29 25 0 49-10 67-29 38-38 38-100 0-139l15-15c46 47 46 122 0 168-22 23-52 35-82 35z m43-227l-43-71-45 71-18-12 63-99 61 99z m-43 47c35 0 63 29 63 63 0 34-29 63-63 63-35 0-63-29-63-63-1-34 28-63 63-63z m0 106c23 0 42-19 42-42 0-23-19-42-42-42-23 0-42 19-42 42-1 23 18 42 42 42z m252-57c-2 17-7 36-14 53l-17-7c6-16 10-33 13-50z m-168 203c-17 6-36 11-54 13l-1-18c17-1 34-6 50-12z m135-333l16-7c7 17 13 35 16 53l-17 3c-3-17-8-33-15-49z m-62 293l-11-13c13-11 26-23 36-36l14 11c-11 14-25 27-39 38z m-137-438l2-18c19 2 37 5 55 11l-6 17c-17-5-34-9-51-10z m120 45l10-15c15 12 29 24 41 38l-14 12c-11-14-24-25-37-35z m-156-45c-3 0-6 1-10 1-1 0-2 0-2 0-4 0-6 0-10 1-1 0-2 0-3 1-4 1-6 1-10 2-26 6-50 15-72 29-15 8-28 20-41 31-19 18-34 39-47 62-2 3-4 8-6 12-2 3-3 8-5 11 0 0 0 1 0 1-2 3-3 7-4 10 0 1 0 1-1 2-1 3-2 7-4 10-6 20-8 42-8 64 0 6 0 12 1 18 0 2 0 5 0 8 0 1 0 2 1 4 0 2 1 5 1 8 0 2 1 3 1 5 1 2 1 6 2 8 0 1 1 3 1 4 0 2 1 6 2 8 7 26 19 50 33 72 10 14 22 27 35 39 18 18 41 33 64 44 4 0 7 2 11 4 0 0 1 0 1 0 4 2 7 2 11 3 0 0 1 1 1 1 4 1 7 2 11 4 0 0 1 0 1 0 4 1 7 2 11 3 16 3 33 5 50 5l0 18c-17 0-35-2-52-5 0 0-1 0-1 0-4-1-8-2-12-3-1 0-2 0-3-1-3 0-7-1-11-3-1 0-1-1-2-1-4-1-7-2-10-3-1 0-2-1-3-1-3-2-7-3-10-4 0 0-1 0-1 0-68-33-120-92-141-165 0-1 0-2-1-2-1-2-1-6-2-9 0-2-1-3-1-4-1-3-1-6-2-9 0-2-1-3-1-4-1-3-1-6-1-9 0-1 0-3 0-5 0-2-1-6-1-8 0-2 0-3 0-5 0-5-1-10-1-15 0-23 3-46 9-67 0-1 1-2 1-2 1-4 2-7 4-10 0-1 0-2 0-3 1-3 3-8 5-11 0-1 0-1 0-2 2-4 4-7 6-12 0 0 0 0 0-1 33-71 98-125 177-143 0 0 1 0 1 0 3-1 7-2 9-2 1 0 3 0 4 0 3-1 7-1 10-2 1 0 2 0 3 0 4 0 8-1 11-1 1 0 2 0 3 0 4 0 9 0 14 0l0 18c-5 0-9 0-13 0-1 0-2 1-3 1z"/>
<glyph glyph-name="noshow-1" unicode="&#85;" d="M256 512c-141 0-256-115-256-256 0-141 115-256 256-256 141 0 256 115 256 256 0 141-115 256-256 256z m113-270l-226 0 0 26 226 0z"/>
<glyph glyph-name="llego" unicode="&#86;" d="M256 512c-141 0-256-115-256-256 0-141 115-256 256-256 141 0 256 115 256 256 0 141-115 256-256 256z m0-425l-61 99 17 12 44-71 44 71 17-12z m0 158c-35 0-63 29-63 63 0 35 29 63 63 63 34 0 63-29 63-63 0-34-28-63-63-63z m83-23l-16 15c38 39 38 100 0 139-18 19-41 29-67 29-26 0-49-10-67-29-38-38-38-100 0-139l-16-15c-45 47-45 122 0 168 22 22 51 35 83 35 32 0 61-13 83-35 45-46 45-121 0-168z m-41 87c0-23-19-42-42-42-23 0-42 19-42 42 0 23 19 42 42 42 23 0 42-19 42-42z"/>
<glyph glyph-name="cancelado" unicode="&#87;" d="M256 512c-141 0-256-115-256-256 0-141 115-256 256-256 141 0 256 115 256 256 0 141-115 256-256 256z m89-327l-18-18-72 72-71-71-18 18 71 71-71 71 18 18 71-71 71 71 18-18-71-71z"/>
<glyph glyph-name="resconfirmado" unicode="&#88;" d="M256 512c-141 0-256-115-256-256 0-141 115-256 256-256 141 0 256 115 256 256 0 141-115 256-256 256z m26-370l0 18 92 0 0 192-83 0c-15 0-26-13-26-29l0-180-18 0 0 181c0 16-13 28-29 28l-82 0 0-191 93 0 0-18-110 0 0 227 100 0c15 0 28-7 37-19 8 12 20 19 35 19l100 0 2-228z"/>
<glyph glyph-name="reservado" unicode="&#43;" d="M256 512c-141 0-256-115-256-256 0-141 115-256 256-256 141 0 256 115 256 256 0 141-115 256-256 256z m0-494c-131 0-238 107-238 238 0 131 107 238 238 238 131 0 238-107 238-238 0-131-107-238-238-238z m35 352c-15 0-27-7-35-19-9 12-21 19-37 19l-100 0 0-227 111 0 0 18-94 0 0 191 82 0c16 0 29-12 29-28l0-182 19 0 0 181c0 16 11 29 26 29l83 0 0-191-93 0 0-18 111 0-2 227z"/>
<glyph glyph-name="mesaiso" unicode="&#96;" d="M286 503l0-76 23-4 19-6 15-8 11-10 9-13 6-15 3-17 3-19 0-16-1-13-1-14-2-16-2-19-1-20-1-19-3-21-2-20-4-18-3-18-3-16-5-15-4-12-5-8-14 0-1 233-1 7-4 6-6 4-7 1-3 0-3-1-4-1-2-2-3-3-2-4 0-3-1-4-15-215-1-4 0-3-2-4-2-3-2-2-4-2-3 0-4-1-7 1-6 4-5 6 0 8-13 216-2 7-3 6-6 4-8 2-3-1-4-1-2-1-4-2-2-3-1-3-1-3-1-5 0-234-12 0-5 8-4 12-5 14-3 17-3 17-3 19-3 20-3 21-3 39-2 18-2 17-1 15 0 29 1 19 2 9 3 7 2 8 3 8 5 6 4 6 5 5 6 6 7 4 8 3 9 4 10 2 11 3 13 2 0 76c-124-16-218-120-218-247 0-138 111-248 248-248 137 0 248 110 248 248 0 127-95 232-218 246z"/>
<glyph glyph-name="famoso" unicode="&#97;" d="M-1 64l514 0 0-32-514 0z m388 137l-132 216-128-216-27 17 155 262 159-263z m125-105l-513 0 0 337 136-99-19-26-85 61 0-241 449 0 0 241-85-61-20 26 137 99z"/>
<glyph glyph-name="degusta" unicode="&#124;" d="M178 6c-26 0-47 20-47 47l0 171 32 0 0-171c0-9 7-15 15-15 10 0 16 6 16 15l0 374c0 26-21 47-47 47-27 0-47-21-47-47l0-203-32 0 0 203c0 43 35 77 78 77 43 0 78-35 78-77l0-374c1-26-20-47-46-47z m172 0c-27 0-47 20-47 47l0 243-47 47 0 162 32 0 0-150 47-47 0-255c0-9 6-15 15-15 9 0 15 6 15 15l0 255 47 47 0 150 32 0 0-162-47-47 0-243c0-26-22-47-47-47z m-16 500l32 0 0-156-31 0z"/>
<glyph glyph-name="mensajec" unicode="&#125;" d="M9 29l0 454 494 0 0-325-326 0 0 32 296 0 0 262-434 0 0-333 49 64 26-19z m93 345l308 0 0-31-308 0z m0-76l216 0 0-31-216 0z"/>
<glyph glyph-name="viareserva" unicode="&#126;" d="M345 9l-135 120 0-39 6 5 22-23-59-57 0 185 150-136 125 388-388-138 83-81 161 122 19-26-181-138-139 135 494 177z"/>
<glyph glyph-name="mesaasignada" unicode="&#73;" d="M413 355l-22-21 60-61-41 0 0-34 42 0-61-61 22-21 99 99z m-336-82l51 0 0-34-51 0z m85 0l43 0 0-34-43 0z m77 0l51 0 0-34-51 0z m85 0l51 0 0-34-51 0z m-324 0l43 0 0-34-43 0z"/>
<glyph glyph-name="terraza" unicode="&#123;" d="M503 55l-494 0 0 402 494 0z m-464 31l434 0 0 341-434 0z m387 248l-93 0 0 61 31 0 0-31 31 0 0 31 31 0z m-124 0l-93 0 0 61 32 0 0-31 30 0 0 31 31 0z m-124 0l-93 0 0 61 32 0 0-31 31 0 0 31 30 0z m0-217l-30 0 0 31-31 0 0-31-32 0 0 61 93 0z m124 0l-31 0 0 31-30 0 0-31-32 0 0 61 93 0z m124 0l-31 0 0 31-31 0 0-31-31 0 0 61 93 0z"/>
<glyph glyph-name="icon-recurrente" unicode="&#92;" d="M257 0c-71 0-128 58-128 128 0 70 57 128 128 128 70 0 128-58 128-128 0-70-58-128-128-128z m0 224c-53 0-96-42-96-96 0-54 42-96 96-96 53 0 96 42 96 96 0 54-43 96-96 96z m-33-96l-32 0c0 35 29 64 64 64l0-33c-17 1-32-13-32-31z m53 161l-10 30 131 44-14 69 0 47-255 0-1-50-13-66 131-44-11-30-157 53 18 92 0 78 320 0 0-78 18-92z m-84 159l33 0 0-64-33 0z m95 0l33 0 0-64-33 0z"/>
<glyph glyph-name="nuevo" unicode="&#57344;" d="M256 506c-138 0-250-112-250-250 0-138 112-250 250-250 138 0 250 112 250 250 0 138-112 250-250 250z m-193-212l0 25 133 0 49 136 22-8-54-153z m337-208l-144 85-144-85 52 140-70 34 10 22 90-44-35-96 97 57 97-57-35 96 90 44 10-22-70-34z m-117 208l-26 96 23 7 22-78 147 0 0-25z"/>
<glyph glyph-name="reservamas" unicode="&#57345;" d="M255 358c-13 0-25-7-31-17-7 10-19 17-33 17l-89 0 0-204 98 0 0 17-83 0 0 171 73 0c14 0 26-11 26-24l0-164 17 0 0 162c0 14 9 26 23 26l74 0 0-171-82 0 0-17 98 0-1 204z m259 40c0 48-39 87-87 87-30 0-57-16-73-39-36 24-80 39-128 39-126 0-228-103-228-229 0-126 102-229 228-229 127 0 229 103 229 229 0 19-2 38-7 57 38 9 66 44 66 85z m-75-142c0-118-95-213-213-213-117 0-212 95-212 213 0 118 95 213 212 213 45 0 87-14 121-38-4-10-7-21-7-33 0-48 39-88 87-88 2 0 3 0 5 0 5-17 7-35 7-54z m42 136l-48 0 0-48-12 0 0 48-48 0 0 12 48 0 0 48 12 0 0-48 48 0z"/>
<glyph glyph-name="waitlistmas" unicode="&#57346;" d="M336 116l-218 0 0 254 37 0 0-19-18 0 0-217 181 0 0 217-19 0 0 19 37 0z m-54 218l-109 0 0 54 28 0c4 10 13 18 25 18 12 0 23-7 26-18l28 0 0-54z m-91 17l72 0 0 19-27 0 0 8c0 6-4 9-9 9-5 0-9-4-9-9l0-8-27 0z m-18-90l109 0 0-19-109 0z m0-36l109 0 0-19-109 0z m0-36l109 0 0-19-109 0z m0 109l45 0 0-19-45 0z m342 93c0 48-39 87-87 87-30 0-58-16-73-39-37 25-81 39-128 39-126 1-229-102-229-228 0-126 103-228 229-228 127 0 229 102 229 228 0 20-2 39-7 57 38 9 66 43 66 84z m-75-141c0-117-95-212-213-212-117 0-213 95-213 212 0 118 96 213 213 213 45 0 87-13 121-37-4-11-7-22-7-34 0-48 39-87 87-87 2 0 3 0 5 0 5-18 7-36 7-55z m42 136l-48 0 0-48-12 0 0 48-48 0 0 12 48 0 0 48 12 0 0-48 48 0z"/>
<glyph glyph-name="redsocial" unicode="&#115;" d="M81 176c-44 0-79 36-79 79 0 44 36 79 79 79 43 0 79-36 79-79 0-43-35-79-79-79z m0 129c-27 0-48-22-48-48 0-27 21-48 48-48 26 0 48 21 48 48 0 26-22 48-48 48z m350 31c-44 0-79 36-79 79 0 44 36 79 79 79 43 0 79-36 79-79 1-43-34-79-79-79z m0 127c-26 0-48-21-48-48 0-26 22-48 48-48 27 0 48 22 48 48 0 27-21 48-48 48z m0-446c-44 0-79 36-79 79 0 44 36 79 79 79 43 0 79-36 79-79 1-44-34-79-79-79z m0 128c-26 0-48-22-48-48 0-27 22-48 48-48 27 0 48 21 48 48 0 26-21 48-48 48z m-245 173l127 64 14-28-127-64z m-1-124l14 28 127-63-14-29z"/>
<glyph glyph-name="viaweb" unicode="&#83;" d="M256 0c-141 0-256 115-256 256 0 141 115 256 256 256 141 0 256-115 256-256 0-141-115-256-256-256z m0 481c-123 0-225-101-225-225 0-123 100-225 225-225 123 0 225 100 225 225-2 124-102 225-225 225z m24-427l23 144-105 53 63 77-22 8-85-20-52 40 20 26 40-31 79 18 73-26-65-81 89-45-12-79 57 49 32 121 32-9-35-129z m-113 56l-32 5 11 55-64 6 3 32 100-10z"/>
<glyph glyph-name="email" unicode="&#45;" d="M512 50l-512 0 0 416 512 0z m-480 32l448 0 0 352-448 0z m114 232l28-16-96-161-28 17z m110-74l-199 100 14 29 185-93 185 93 14-29z m110 75l96-161-28-16-96 160z"/>
<glyph glyph-name="icon-email" unicode="&#57347;" d="M512 48l-512 0 0 416 512 0z m-480 32l448 0 0 352-448 0z m18 72l97 160 27-16-96-160z m206 86l-199 100 14 28 185-92 185 92 14-28z m82 58l28 17 96-161-28-16z"/>
<glyph glyph-name="grupo" unicode="&#57348;" d="M193 224c-79 0-143 64-143 142 0 80 64 143 143 143 79 0 142-64 142-143 0-78-65-142-142-142z m0 254c-62 0-111-49-111-111 0-61 49-111 111-111 61 0 111 50 111 111 0 61-50 111-111 111z m174-254l0 32c44 0 79 36 79 79 0 44-36 79-79 79l0 32c62 0 111-49 111-111 0-60-51-111-111-111z m145-190l-98 0 0 32 61 0-12 82-53 14 8 31 74-19z m-127-31l-385 0 20 165 74 24 11-30-56-17-13-111 313 0-13 111-55 17 9 30 75-24z"/>
<glyph glyph-name="icon-telefono" unicode="&#57349;" d="M335 5c-74 0-155 35-222 102-106 106-135 254-66 344l25-19c-58-76-30-209 64-302 94-94 224-121 298-61l20-25c-32-26-74-39-119-39z m146 76l-117 118-21-22c-22-22-52-34-84-34-31 0-61 13-83 34-46 47-46 122 0 169l20 21-117 119 21 21 140-140-44-44c-34-34-34-89 0-123 16-17 38-26 62-26 24 0 45 9 61 26l44 43 140-140z"/>
<glyph glyph-name="walkin" unicode="&#57350;" d="M124 380c-34 0-62 28-62 62 0 33 28 61 62 61 34 0 62-28 62-61 0-35-28-62-62-62z m0 93c-17 0-31-14-31-31 0-18 13-32 31-32 17 0 31 14 31 32 0 17-14 31-31 31z m-94-295l-30 2 8 146 59 50 20-23-49-43z m186 0l-7 132-49 43 20 23 59-50 8-146z m-47-169l-90 0-17 168 0 95 30 0 0-93 14-139 35 0 13 141 0 91 32 0 0-93z m219 371c-34 0-62 28-62 62 0 33 28 61 62 61 34 0 62-28 62-61 0-35-28-62-62-62z m0 93c-17 0-31-14-31-31 0-18 14-32 31-32 17 0 31 14 31 32 0 17-13 31-31 31z m-93-295l-30 2 8 146 59 50 19-23-49-43z m187 0l-8 132-50 43 21 23 59-50 8-146z m3-61l-194 0 35 158 31-6-27-122 116 0-26 122 30 6z m-52-108l-90 0-8 75 31 3 5-47 35 0 4 48 30-2z"/>
<glyph glyph-name="exitfull" unicode="&#57351;" d="M416 304l-88 0 181 182-23 22-182-182 0 91-32 0 0-144 144 0z m-320-96l88 0-180-180 22-23 181 181 0-89 33 0 0 143-144 0z m-64 271l80 0 0 33-113 0 0-112 33 0z m-33-111l33 0 0-97-33 0z m144 144l97 0 0-33-97 0z m337-479l-80 0 0-33 113 0 0 112-33 0z m0 207l33 0 0-97-33 0z m-208-207l97 0 0-33-97 0z"/>
<glyph glyph-name="fullscreen" unicode="&#57352;" d="M367 512l0-33 91 0-181-181 22-22 180 180 0-89 33 0 0 145z m-131-299l-22 23-183-182 0 89-31 0 0-143 143 0 0 33-87 0z m-140 203l80 0 0 31-112 0 0-111 32 0z m-32-112l33 0 0-96-33 0z m143 144l96 0 0-33-96 0z m209-352l-80 0 0-32 111 0 0 112-31 0z m0 208l33 0 0-96-33 0z m-209-208l96 0 0-33-96 0z"/>
<glyph glyph-name="cupos" unicode="&#57354;" d="M256 0c-106 0-191 86-191 191l0 96 382 0 0-96c0-105-85-191-191-191z m-160 255l0-64c0-88 71-160 160-160 88 0 160 71 160 160l0 64z m160-174c-26 0-48 21-48 47l0 32c0 27 22 48 48 48 26 0 48-22 48-48l0-32c-1-26-22-47-48-47z m-16 46c0-9 7-16 16-16 9 0 16 7 16 16l0 32c0 10-7 16-16 16-9 0-16-7-16-16z m143 193l-32 0 0 70c0 49-42 90-96 90-53 0-96-41-96-90l0-70-32 0 0 70c-1 67 57 122 127 122 71 0 128-55 128-123l0-69z"/>
<glyph glyph-name="turnos" unicode="&#57355;" d="M80 512l33 0 0-128-33 0z m0-320l33 0 0-192-33 0z m15 33c-35 0-64 29-64 64 0 35 29 64 64 64 35 0 64-29 64-64 0-35-29-64-64-64z m0 95c-17 0-33-14-33-33 0-19 14-33 33-33 18 0 33 14 33 33 0 19-15 33-33 33z m145 192l33 0 0-256-33 0z m0-448l33 0 0-64-33 0z m16 31c-35 0-64 29-64 64 0 35 29 64 64 64 35 0 64-29 64-64 0-35-29-64-64-64z m0 97c-18 0-33-14-33-33 0-18 14-33 33-33 18 0 33 14 33 33 0 19-15 33-33 33z m144 320l33 0 0-64-33 0z m0-256l33 0 0-256-33 0z m17 33c-35 0-64 29-64 64 0 35 29 64 64 64 35 0 64-29 64-64 0-35-29-64-64-64z m0 95c-18 0-33-14-33-33 0-17 14-33 33-33 17 0 33 14 33 33-2 19-16 33-33 33z"/>
<glyph glyph-name="bars" unicode="&#57356;" d="M475 128l0-37c0-5-1-9-5-12-4-4-8-6-13-6l-402 0c-5 0-9 2-13 6-4 3-5 7-5 12l0 37c0 5 1 9 5 13 4 3 8 5 13 5l402 0c5 0 9-2 13-5 4-4 5-8 5-13z m0 146l0-36c0-5-1-10-5-13-4-4-8-6-13-6l-402 0c-5 0-9 2-13 6-4 3-5 8-5 13l0 36c0 5 1 10 5 13 4 4 8 6 13 6l402 0c5 0 9-2 13-6 4-3 5-8 5-13z m0 147l0-37c0-5-1-9-5-13-4-3-8-5-13-5l-402 0c-5 0-9 2-13 5-4 4-5 8-5 13l0 37c0 5 1 9 5 12 4 4 8 6 13 6l402 0c5 0 9-2 13-6 4-3 5-7 5-12z"/>
<glyph glyph-name="timeline" unicode="&#57357;" d="M169 418l248 0 0-31-248 0z m-101-62l124 0 0-31-124 0z m0-62l349 0 0-32-349 0z m77-63l188 0 0-31-188 0z m-77-62l302 0 0-31-302 0z m188-63l154 0 0-31-154 0z m249-91l-498 0 0 435 32 0 0-404 434 0 0 420-466 0 0 31 498 0z"/>
<glyph glyph-name="widget" unicode="&#57358;" d="M218 512l5-32c-110-14-194-110-194-222 0-124 101-226 225-226 124 0 226 101 226 226-1 112-84 208-195 222l5 32c127-17 223-126 223-255 0-142-115-257-257-257-142 0-257 115-257 257-3 129 93 238 219 255z m-148-171l47 0c4 0 8-1 11-3 3-3 5-5 6-8l34-129c2-7 3-14 5-21 1-6 2-14 3-20 2 6 3 14 6 20 1 6 4 14 6 21l40 129c1 4 3 6 6 8 3 3 6 4 9 4l26 0c4 0 8-1 10-4 3-2 5-4 6-8l39-132c2-6 4-13 6-20 1-6 3-12 4-19 1 7 3 14 4 20 2 7 4 14 5 21l36 129c1 3 3 5 6 8 3 2 6 3 10 3l44 0-77-242-46 0c-5 0-9 4-11 11l-43 139c-2 5-3 9-4 14-1 4-3 9-4 13 0-5-1-9-3-13-1-5-2-10-4-14l-44-139c-2-7-6-11-13-11l-44 0z"/>
<glyph glyph-name="enviarmsje" unicode="&#57359;" d="M471 385l0-335c0-5-4-9-9-9l-412 0c-6 0-10 4-10 9l0 335c0 5-4 9-10 9l-10 0c-6 0-10-4-10-9l0-365c0-6 4-10 10-10l473 0c5 0 9 4 9 10l0 365c0 5-4 9-9 9l-11 0c-6 0-11-4-11-9z m-93-131l61 30c4 2 7 7 4 12l-6 12c-3 4-7 6-11 4l-166-83c-2-2-6-2-8 0l-166 83c-4 2-10 0-12-4l-6-12c-2-4 0-10 4-11l61-31c5-2 6-8 3-12l-74-124c-2-4 0-9 4-12l12-7c4-2 9-1 12 3l76 127c2 4 7 5 11 3l75-38c2-1 6-1 8 0l75 38c4 2 9 1 11-3l76-127c3-4 8-6 12-4l12 8c4 2 6 8 4 12l-75 124c-3 4-1 9 3 12z m-264 217l284 0c6 0 12-5 12-12l0-114c0-7 5-12 12-12l5 0c7 0 12 5 12 12l0 145c0 6-5 12-12 12l-344 0c-6 0-11-6-11-12l0-145c0-7 6-12 12-12l6 0c6 0 12 5 12 12l0 114c0 7 5 12 12 12z m19-42l0-8c0-7 5-12 12-12l84 0c6 0 12 5 12 12l0 8c0 6-6 12-12 12l-84 0c-7-1-12-6-12-12z m9-81l197 0c6 0 10 4 10 10l0 12c0 5-4 9-10 9l-197 0c-5 0-9-4-9-9l0-12c0-6 5-10 9-10z"/>
<glyph glyph-name="escribirm" unicode="&#57360;" d="M481 284l0-224-450 0 0 368 225 0 0 33-256 0 0-434 512 0 0 257z m-44 103l-154-153-15 30-30 14 153 155-22 23-185-186 60-30 30-61 185 186z m-199-202l-72-23 24 72-32 9-43-132 133 44z m142 281l18 18 92-91-19-19z"/>
<glyph glyph-name="camposper" unicode="&#57353;" d="M512 16l-512 0 0 433 256 0 0-32-224 0 0-368 448 0 0 224 32 0z m-238 152l-30 61-60 30 185 186 22-23-153-155 30-14 15-31 154 154 22-22z m208 208l-91 90 11 12c24 24 67 24 92 0 12-12 18-28 18-46 0-17-6-34-18-46z m-43 88l39-39c1 2 1 5 1 8 0 8-4 17-9 22-8 9-20 11-31 9z m-324-365l43 133 32-10-24-72 72 24 10-30z"/>
<glyph glyph-name="top" unicode="&#57361;" d="M273 343l-19 0-32-28 7-9c0-1 1-1 2-2 1-1 2-1 3-1 1 0 2 0 3 1 0 0 1 0 2 1l12 10c0-3 0-6 0-8l0-53-21 0 0-16 60 0 0 16-17 0z m-17 49c-57 0-104-46-104-103 0-57 47-104 104-104 57 0 104 47 104 104 0 57-47 103-104 103z m0-199c-53 0-96 43-96 96 0 52 43 95 96 95 53 0 96-43 96-95 0-53-43-96-96-96z m0 319c-141 0-256-115-256-256 0-141 115-256 256-256 141 0 256 115 256 256 0 141-115 256-256 256z m82-315l0-105c0-4-5-7-8-4l-71 49c-2 2-5 2-6 0l-71-49c-3-3-8 0-8 4l0 105c-25 22-41 55-41 92 0 68 55 123 123 123 68 0 123-55 123-123 0-37-16-70-41-92z"/>
<glyph glyph-name="oportunidad" unicode="&#57362;" d="M255 511c-141 0-255-114-255-256 0-141 114-255 255-255 142 0 256 114 256 255 0 142-114 256-256 256z m28-428l-55 0c-7 0-12 6-12 12 0 7 5 12 12 12l55 0c7 0 12-5 12-12 0-6-5-12-12-12z m6 28l-68 0c-6 0-12 5-12 12 0 7 6 12 12 12l68 0c7 0 12-5 12-12 0-7-5-12-12-12z m46 108c-23-24-28-42-28-58-1-12-11-22-23-22l-57 0c-12 0-22 10-23 22 0 16-5 34-29 58-35 36-31 79-31 79 0 62 50 112 111 112 62 0 112-50 112-112 0 1 4-43-32-79z"/>
<glyph glyph-name="alta-demanda" unicode="&#57363;" d="M256 512c-142 0-256-115-256-256 0-142 114-256 256-256 141 0 256 114 256 256 0 141-115 256-256 256z m81-189c-5-4-10-7-16-7-2 0-4 1-7 1l-6 2-28-97c-2-6-6-11-11-14-5-3-12-4-18-2l-30 9-30-108c-3-10-12-17-22-17-2 0-5 0-7 1-12 3-19 16-16 28l37 131c2 6 6 11 11 13 6 3 12 4 18 2l30-8 21 75-6 2c-8 2-14 8-16 16-2 8 0 17 6 22l43 42c6 6 14 8 22 6 8-2 14-9 16-17l15-58c2-8 0-16-6-22z"/>
<glyph glyph-name="alerta" unicode="&#57364;" d="M256 512c-141 0-256-115-256-256 0-141 115-256 256-256 141 0 256 115 256 256 0 141-115 256-256 256z m0-419c-16 0-28 12-28 28 0 15 12 28 28 28 16 0 28-13 28-28 0-16-12-28-28-28z m30 297l-7-210c0-13-11-23-24-22-12 0-22 10-22 22l-7 210c-1 16 12 30 29 31 17 0 31-13 31-29 0-1 0-2 0-2z"/>
<glyph glyph-name="printer-1" unicode="&#57366;" d="M469 320l-42 0 0 171-342 0 0-171-42 0c-24 0-43-19-43-43l0-213c0-23 14-43 32-43l53 0 0-21 342 0 0 21 53 0c18 0 32 20 32 43l0 213c0 24-19 43-43 43z m-384-277l-21 0 0 106 21 0z m299 0l-256 0 0 106 43 0 0-21 170 0 0 21 43 0z m0 277l-256 0 0 128 256 0z m64-277l-21 0 0 106 21 0z m21 213l-42 0 0 21 42 0z m-298-171l170 0 0 22-170 0z"/>
<glyph glyph-name="imprimir" unicode="&#57365;" d="M486 104l-87 0 0 29 59 0 0 233-408 0 0-233 58 0 0-29-88 0 0 291 466 0z m-116-88l-232 0 0 175 28 0 0-145 175 0 0 145 29 0z m-291 321l30 0 0-30-30 0z m59 0l29 0 0-30-29 0z m232 88l-29 0 0 29-175 0 0-29-28 0 0 58 232 0z m-175-321l131 0 0-30-131 0z m0 58l131 0 0-29-131 0z"/>
<glyph glyph-name="check-1" unicode="&#57367;" d="M256 512c-141 0-256-115-256-256 0-141 115-256 256-256 141 0 256 115 256 256 0 141-115 256-256 256z m163-186c-65-64-129-129-193-194-15-15-39-15-54 0l-79 80c-14 15-14 38 0 53 0 0 1 0 1 0 14 15 38 15 52 0 18-17 35-35 53-53l166 168c15 15 39 15 54 0l0-1c14-15 14-38 0-53z"/>
<glyph glyph-name="exclamation-triangle" unicode="&#57368;" d="M293 119l0 54c0 3-1 5-3 7-2 2-4 3-7 3l-54 0c-3 0-5-1-7-3-2-2-3-4-3-7l0-54c0-3 1-5 3-7 2-1 4-2 7-2l54 0c3 0 5 1 7 2 2 2 3 4 3 7z m-1 107l5 131c0 2-1 4-3 6-2 2-4 3-7 3l-62 0c-3 0-5-1-7-3-2-2-3-4-3-6l5-131c0-2 1-3 3-5 1-1 4-2 6-2l53 0c3 0 5 1 7 2 2 2 3 3 3 5z m-4 267l219-402c7-12 7-24 0-36-3-6-8-10-13-14-6-3-12-4-19-4l-438 0c-7 0-13 1-19 4-5 4-10 8-13 14-7 12-7 24 0 36l219 402c3 6 8 10 13 14 6 3 12 5 19 5 7 0 13-2 19-5 5-4 10-8 13-14z"/>
<glyph glyph-name="skull" unicode="&#57370;" d="M447 142c-12 11-30 12-42 1l-46 46c13 19 20 42 20 67 0 25-7 48-20 67l46 46c12-11 30-11 41 1 12 12 12 31 1 42-7 7-17 10-26 9 2 9-1 19-8 26-12 12-31 12-43 0-11-12-12-30-1-42l-46-46c-19 13-42 20-67 20-25 0-48-7-67-20l-46 46c11 12 11 30-1 41-12 12-31 12-42 1-7-7-10-17-9-26-9 2-19-1-26-8-12-12-12-31 0-43 12-11 30-12 42-1l46-46c-13-19-20-42-20-67 0-25 7-48 20-67l-46-46c-12 11-30 11-41-1-12-12-12-31-1-42 7-7 17-10 26-9-2-9 1-19 8-26 12-12 31-12 43 0 11 12 12 30 1 42l44 44 0-30c19-15 43-24 69-24 26 0 50 9 69 24l0 30 44-44c-11-12-11-30 1-41 12-12 31-12 42-1 7 7 10 17 9 26 9-2 19 1 26 8 12 12 12 31 0 43z m-225 68c-13 0-23 11-23 23 0 13 10 24 23 24 13 0 24-11 24-24 0-12-11-23-24-23z m68 0c-13 0-24 10-24 23 0 13 11 24 24 24 13 0 23-11 23-24 0-13-10-23-23-23z"/>
<glyph glyph-name="cancel-circled" unicode="&#57369;" d="M256 471c59 0 110-21 152-63 42-42 63-93 63-152 0-59-21-110-63-152-42-42-93-63-152-63-59 0-110 21-152 63-42 42-63 93-63 152 0 59 21 110 63 152 42 42 93 63 152 63m44-215c0 0 79 79 79 79 0 0-44 44-44 44 0 0-79-78-79-78 0 0-78 78-78 78 0 0-45-44-45-44 0 0 79-79 79-79 0 0-79-78-79-78 0 0 45-44 45-44 0 0 78 78 78 78 0 0 79-78 79-78 0 0 44 44 44 44 0 0-79 78-79 78"/>
<glyph glyph-name="libro-1" unicode="&#57373;" d="M418 0c-13 0-25 2-37 7-11 5-21 12-30 21-9 8-15 18-20 30-5 11-8 24-8 36 0 13 3 25 8 37 5 11 11 21 20 30 9 9 19 15 30 20 12 5 24 8 37 8 12 0 25-3 36-8 12-5 22-11 30-20 9-9 16-19 21-30 4-12 7-24 7-37 0-12-2-25-7-36-5-12-12-22-21-30-8-9-18-16-30-21-11-5-24-7-36-7z m-92 35c-22-7-46-11-70-11-129 0-232 104-232 232 0 129 104 232 232 232 128 0 232-103 232-232 0-24-4-48-11-70 7-4 13-9 18-14 1-1 1-1 2-2 10 27 15 56 15 86 0 141-115 256-256 256-141 0-256-115-256-256 0-141 115-256 256-256 30 0 59 5 86 15-1 1-1 1-2 2-5 5-10 11-14 18z m-2 116l-39 0 0-20 29 0c1 2 2 4 3 6 2 5 4 9 7 14z m83 231l-111 0c-17 0-31-8-40-20-9 13-24 21-41 21l-111 0 0-252 122 0 0 21-102 0 0 211 91 0c17 0 31-14 31-30l0 0c0 0 0-1 0-1l0-202 19 0 0 202c0 16 15 30 31 30l91 0 0-162c7 1 13 3 20 3l0 179z m72-252c-3 3-9 3-13 0l-68-70-32 33c-3 3-10 3-13 0-3-4-3-10 0-13l38-39c4-3 10-3 13 0l76 76c3 3 3 9-1 13z"/>
<glyph glyph-name="gift" unicode="&#57371;" d="M256 32l160 0 0 160-160 0z m-192 0l160 0 0 160-160 0z m192 292c16 2 33 4 44 5 42 4 79 42 84 84 5 42-26 72-67 67-33-3-63-27-77-57-14 30-44 54-77 58-41 4-72-26-67-68 5-42 43-80 84-84 11-1 28-3 44-5 0-2 0-4 0-4l32 0c0 0 0 2 0 4z m54 118c22 2 39-14 36-37-2-22-23-43-45-45-23-3-39 13-37 36 3 23 23 43 46 46z m-131-82c-22 2-43 23-45 45-3 23 14 39 36 37 23-3 43-23 46-46 2-23-14-39-37-36z m77-40l0-96 192 0 0 96z m-224-96l192 0 0 96-192 0z"/>
<glyph glyph-name="creditcard-pay" unicode="&#57374;" d="M57 83c-29 0-52 23-52 52l0 242c0 29 23 52 52 52l398 0c29 0 52-23 52-52l0-242c0-29-23-52-52-52z m0 321c-15 0-27-12-27-27l0-242c0-15 12-27 27-27l398 0c15 0 27 12 27 27l0 242c0 15-12 27-27 27z m75-30l-52 0c-12 0-21-9-21-21l0-52c0-12 9-22 21-22l0 0 52 0c12 0 22 10 22 22l0 52c0 12-10 21-22 21z m-1-168l-59 0c-8 0-13 6-13 13 0 7 5 13 13 13l59 0c7 0 13-6 13-13 0-7-6-13-13-13z m103 0l-59 0c-7 0-13 6-13 13 0 7 6 13 13 13l59 0c7 0 13-6 13-13 0-7-6-13-13-13z m104 0l-59 0c-7 0-13 6-13 13 0 7 6 13 13 13l59 0c7 0 13-6 13-13 0-7-6-13-13-13z m103 0l-59 0c-7 0-13 6-13 13 0 7 6 13 13 13l59 0c7 0 13-6 13-13 0-7-6-13-13-13z m-244-70l-125 0c-8 0-13 6-13 13 0 8 5 13 13 13l125 0c7 0 13-5 13-13 0-7-6-13-13-13z m245-10l-60 0c-7 0-12 6-12 12l0 31c0 7 5 12 12 12l60 0c7 0 12-5 12-12l0-31c0-6-5-12-12-12z"/>
<glyph glyph-name="experiencias" unicode="&#57372;" d="M5 82c0-13 9-21 21-21l460 0c13 0 22 8 22 21l0 21-503 0z m460 63l42 0c0 131-101 238-231 249l0 23 22 0c13 0 21 9 21 22 0 12-8 21-21 21l-84 0c-13 0-21-9-21-21 0-13 8-22 21-22l22 0 0-23c-130-10-231-117-231-249z m-209 213c105 0 195-75 214-175l-428 0c19 100 109 175 214 175z m94-50l-10-19c31-18 56-46 70-79l19 8c-14 38-43 70-79 90z"/>
<glyph glyph-name="opentable" unicode="&#57375;" d="M101 256c0-25-20-45-45-45-25 0-45 20-45 45 0 25 20 45 45 45 25 0 45-20 45-45z m223 178c-100 0-178-82-178-178 0-96 81-178 178-178 99 0 177 82 177 178 0 96-81 178-177 178z m0-223c-27 0-45 21-45 45 0 24 18 45 45 45 24 0 45-21 45-45 0-24-21-45-45-45z"/>
<glyph glyph-name="cupon" unicode="&#57376;" d="M512 96l-512 0 0 320 512 0z m-479 32l448 0 0 255-448 0z m64 238l33 0 0-64-33 0z m0-79l33 0 0-64-33 0z m0-79l33 0 0-64-33 0z m197 89c0-13-11-24-24-24-14 0-24 11-24 24 0 13 10 24 24 24 13 0 24-11 24-24z m84-82c0-13-10-24-24-24-13 0-24 11-24 24 0 13 11 24 24 24 14 0 24-11 24-24z m-141-18l138 137 19-19-138-137z"/>
<glyph glyph-name="idioma" unicode="&#57377;" d="M254 512c-139 0-254-115-254-254 0-140 115-255 254-255 140 0 255 115 255 255 0 139-112 254-255 254z m216-240l-104 0c-4 69-28 139-70 195 94-18 167-98 174-195z m-292-28l156 0c-3-73-31-143-80-199-45 56-73 126-76 199z m0 28c3 73 31 142 76 198 49-56 73-125 80-198z m41 195c-41-56-66-126-69-195l-108 0c7 97 80 177 177 195z m-177-223l104 0c4-70 28-140 70-195-94 14-167 94-174 195z m251-199c41 56 66 126 69 195l105 0c-4-97-77-177-174-195z"/>
<glyph glyph-name="menu" unicode="&#57378;" d="M376 509c-3 0-5 0-8-2-48-30-75-80-75-134l0-152c0-13 11-24 24-24l0-157c0-19 16-35 35-35 19 0 35 16 35 35l0 456c0 8-3 13-11 13z m-13-472c0-8-6-10-11-10-8 0-13 5-13 10l0 155 18 0z m-123 472c-8 0-13-5-13-13l0-131-27 0 0 131c0 8-5 13-13 13-8 0-19-5-19-13l0-131-27 0 0 131c0 8-5 13-13 13-8 0-16-5-16-13l0-165c0-19 16-35 35-35l2 0-18-243c-3-24 18-45 42-48 3 0 3 0 6 0 21 0 42 19 45 46l0 5-19 237 3 0c19 0 35 16 35 35l0 165c5 6 5 8 5 11 0 3-3 5-8 5z m-48-213l19-245c-3-8-6-14-11-19-5-5-11-8-16-5-5 0-8 2-11 5-5 5-8 11-8 19l19 245z"/>
<glyph glyph-name="logomesa" unicode="&#57379;" d="M201 116l77 0 0 23-77 0 0 111 119 0 0 21-145 0 0-237 149 0 0 23-123 0z m275-27l26 0-100 240-4 0-17-41-10-23-29-71c-3 0-4 0-6 0-26-2-50 14-62 37l-20-12c15-30 46-48 79-48l-33-82 24 0 15 40 121 0z m-128 61l36 91c0-3 1-5 0-8 0-9-3-16-8-23l-14-35c28 6 49 30 47 59 0 16-3 30-12 41 1 6 2 10 2 10 0 0 5-16 9-28l42-105-102 0z m-228 213c2 0 3 0 4 0 1 0 3 0 4 0 34 3 61 29 65 62 3 36-23 68-59 73-1 0-2-1-2-3l0-12c0-3 2-7 5-7 9-1 17-7 19-16 3-26-1-51-10-75l-3 0 0 65c0 2-2 5-5 5-2 0-5-3-5-5l-4-59c0-3-2-5-5-5-2 0-5 2-5 5l-4 59c0 2-2 5-5 5-2 0-5-3-5-5l0-65-4 0c-7 24-11 51-9 76 2 9 9 17 19 17 3 1 6 3 6 6l0 13c0 1-2 2-3 2-36-5-61-37-59-72 3-35 31-61 65-64z m83-27c0 0 0-20 3-35l2-25 26 0-13 120-3 0-81-137c-5-8-9-17-12-25-3 9-7 17-11 25l-83 137-2 0-27-241 24 0 17 146c1 15 2 35 2 35 4-11 9-23 16-34l62-107 2 0 63 107c6 11 11 23 15 34z m19-181l26 0-10 91-26 0z m100 137l19-9c10-4 19-9 26-16l11 25c-9 5-18 10-27 14l-19 9c-27 12-38 21-38 42 0 20 14 34 38 34 18 0 35-10 44-25l21 12c-13 23-38 37-64 36-36 0-62-23-62-57-2-34 16-50 51-65z m77-260l-11 0c-1 0-1 0-3 0-1 0-2 0-2-1l10 10c1 1 2 2 4 4 1 1 2 2 2 3 2 2 2 3 3 4 1 2 1 3 1 5 0 3 0 4-1 5-1 2-1 3-3 4-1 2-2 3-5 3-1 0-4 1-6 1-3 0-4 0-5-1-2 0-4-1-5-3-2-1-3-2-4-4-1-1-1-3-1-6l3-1c0 0 2 0 2 0 1 0 1 0 1 0 0 0 1 1 1 1 0 1 1 3 3 4 1 1 2 1 5 1 1 0 2 0 2 0 0 0 2-1 3-1 1 0 1-1 1-3 0-1 0-1 0-2 0-1 0-3 0-4 0-1-1-3-1-4 0-1-1-2-3-4-1-1-2-2-2-3l-17-9c0 0-1-2-1-2 0 0 0-1 0-1l0-2 32 0 0 5c0 1 0 1-1 1 0 0 0 0-2 0z m40 6l0 5-7 0 0 30-7 0-22-30 1-3c0 0 0-2 2-2 0 0 1 0 1 0l19 0 0-11 6 0 0 11 4 0c1-2 1-2 3 0 0-1 0-1 0 0z m-13 22c0-1 0-1 0-3l0-15-14 0 14 19c0 0 0-1 0-1z m32 11c-1 0-1-1-1-2l-20-47 4 0c0 0 2 0 2 0 0 0 1 0 1 0 0 0 1 0 1 1 0 0 0 1 1 1l18 47-4 0c-1 2-1 0-2 0z m6-6c1-1 1-1 1-1l22 0c-1-2-1-3-2-4l-18-36 6 0c1 0 3 0 3 2 0 1 1 1 1 1l18 35c0 0 0 2 1 2 0 0 0 1 0 2l0 4-32 0z"/>
<glyph glyph-name="isotipotenedorlistado" unicode="&#57380;" d="M299 512c-4 0-7-3-8-8l0-49c0-12 9-23 21-25 35-4 64-31 71-66 13-69-12-246-37-288l-12 0 0 247c0 11-9 19-19 19-11 0-20-8-20-19l-13-224c0-11-9-19-20-19-10 0-19 8-19 19l-14 224c0 11-8 19-19 19-11 0-20-8-20-19l0-247-12 0c-25 41-49 219-36 288 6 35 35 62 71 66 12 2 20 13 20 25l0 49c0 5-4 8-8 8-133-19-230-136-225-271 6-135 114-243 248-250 5 0 10 0 14 0 5 0 10 0 14 0 135 7 242 115 248 250 6 135-91 252-225 271z"/>
<glyph glyph-name="tenedor" unicode="&#57381;" d="M256 509c-19 0-32-15-32-33l0-43c0-13-10-25-23-29-40-3-72-34-80-74-15-77 14-278 42-326l13 0 0 279c0 11 12 21 23 21 11 0 19-10 21-21l15-252c0-12 11-21 23-21 11 0 21 9 21 21l15 252c0 11 9 21 23 21 11 0 20-10 20-21l0-279 14 0c28 48 55 247 41 326-7 40-39 71-79 74-14 2-23 16-23 29l0 43c-2 18-15 33-34 33z"/>
<glyph glyph-name="duracion" unicode="&#57382;" d="M252 430c107 0 192-85 192-192 0-106-85-192-192-192-106 0-192 86-192 192 0 104 86 192 192 192m0 35c-128 0-229-101-229-229 0-128 101-230 229-230 128 0 230 102 230 230 0 128-104 229-230 229z m8-117l-37 0 0-147 123 0 0 37-86 0z m163 146l64-64c8-8 8-18 0-26l-8-8c-8-8-19-8-27 0l-64 64c-8 8-8 18 0 26l8 8c8 8 19 8 27 0z m-408-64l64 64c8 8 19 8 27 0l8-8c8-8 8-18 0-26l-64-64c-8-8-19-8-27 0l-8 8c-8 10-8 18 0 26z"/>
<glyph glyph-name="direccion" unicode="&#57383;" d="M310 300c0-29-24-53-53-53-30 0-53 24-53 53 0 30 23 54 53 54 29 0 53-24 53-54z m-53 171c-91 0-163-75-163-163 0-42 27-101 75-165 35-48 72-80 88-96 19 13 53 48 88 96 48 64 75 123 75 165 0 88-75 163-163 163m0 37c112 0 200-90 200-200 0-125-176-301-200-301-24 0-200 176-200 301-3 110 88 200 200 200z"/>
<glyph glyph-name="tenedorselect" unicode="&#57384;" d="M257 512c-142 0-257-115-257-257 0-141 115-256 257-256 140 0 256 115 256 256 0 142-116 257-256 257z m50-390l-7 0 0 149c0 6-5 11-11 11-6 0-12-5-12-11l-8-135c0-6-5-11-11-11-7 0-13 5-13 11l-8 135c0 6-5 10-11 11-6 0-12-4-12-11l0-149-7 0c-15 25-31 131-22 174 4 21 21 38 42 40 7 1 12 8 12 15l0 23c0 10 8 17 18 17 10 0 17-8 17-17l0-24c0-7 5-13 12-15 21-2 38-19 42-40 9-42-6-149-21-173z"/>
</font>
</defs>
</svg>
